# Blender 5.1.2
# www.blender.org
mtllib Pickaxe.mtl
o Cube.001
v -0.679486 -0.826198 0.393303
v -0.571373 0.941095 0.322654
v -0.681535 -0.826198 -0.389754
v -0.569674 0.941085 -0.325595
v 0.676809 -0.826426 0.389754
v 0.551428 0.941222 0.325595
v 0.674761 -0.826426 -0.393303
v 0.553127 0.941232 -0.322654
v -8.526362 -0.410155 -0.094311
v -8.526362 -0.410155 0.094311
v -8.526065 -0.079658 0.094329
v -8.526065 -0.079658 -0.094329
v 8.390489 -0.119461 0.209491
v 8.390839 -0.406455 0.209477
v 8.390838 -0.406455 -0.209477
v 8.390490 -0.119461 -0.209491
v -6.455303 0.291905 -0.240005
v -2.512233 0.751891 -0.481041
v -2.512234 0.751891 0.481041
v -6.455302 0.291905 0.240005
v -6.456241 -0.403722 0.239950
v -2.513005 -0.642218 0.480994
v -2.513005 -0.642218 -0.480994
v -6.456241 -0.403722 -0.239950
v 0.732041 0.500476 0.864852
v 0.732041 0.500476 -0.864852
v -0.738338 0.500381 -0.859452
v -0.738338 0.500381 0.859452
v 2.484889 0.745451 -0.516038
v 6.411000 0.256907 -0.354082
v 6.412084 -0.400339 -0.354038
v 2.485741 -0.642383 -0.516003
v 2.484889 0.745451 0.516038
v 6.411000 0.256907 0.354082
v 2.485741 -0.642383 0.516003
v 6.412084 -0.400339 0.354038
v -8.699010 -0.179954 0.115508
v -8.699010 -0.179954 -0.115508
v 8.549809 -0.210711 0.272805
v 8.549809 -0.210711 -0.272805
v -6.455497 0.147491 0.359991
v -2.512393 0.462471 0.721547
v -6.455497 0.147491 -0.359991
v -2.512394 0.462471 -0.721547
v 6.411224 0.120461 -0.531110
v 2.485066 0.457334 -0.774046
v 6.411225 0.120461 0.531109
v 2.485066 0.457334 0.774046
v -0.738421 -0.470739 -0.859444
v 0.732131 -0.470880 -0.864847
v 0.732132 -0.470880 0.864847
v -8.699126 -0.358353 -0.115498
v -8.699127 -0.358353 0.115498
v 8.549946 -0.363429 0.272796
v 8.549946 -0.363429 -0.272796
v -6.456046 -0.259309 0.359942
v -2.512845 -0.352797 -0.721505
v -6.456046 -0.259309 -0.359942
v -0.738421 -0.470739 0.859444
v -2.512844 -0.352797 0.721505
v 6.411859 -0.263894 -0.531070
v 2.485564 -0.354265 0.774015
v 2.485564 -0.354265 -0.774015
v 6.411859 -0.263894 0.531070
v -0.785420 -0.826181 0.002049
v -0.738315 0.758334 0.823643
v -0.657373 0.941080 -0.001698
v -0.738443 -0.728692 -0.823632
v -0.004412 -0.826312 -0.783058
v -0.007425 0.939517 -0.648190
v 0.732156 -0.728897 -0.828810
v 0.780695 -0.826444 -0.002049
v 0.639126 0.941237 0.001698
v 0.732156 -0.728897 0.828810
v -0.000314 -0.826312 0.783058
v -0.010821 0.939516 0.648190
v -8.639968 -0.418464 0.000000
v -8.669362 -0.126106 0.112096
v -8.639732 -0.103229 0.000000
v -8.669557 -0.403894 -0.112080
v -2.512274 0.679026 -0.691493
v 8.522491 -0.163689 -0.262097
v 8.495472 -0.414532 0.000000
v -8.699067 -0.269153 0.115503
v 8.522720 -0.402191 0.262084
v 8.522719 -0.402191 -0.262084
v -0.738315 0.758334 -0.823643
v 8.495193 -0.143087 0.000000
v -4.412412 0.551456 0.364538
v -6.456191 -0.367365 0.344932
v -4.413394 -0.505042 0.364479
v -2.512274 0.679026 0.691493
v -4.413394 -0.505042 -0.364479
v -6.455352 0.255547 -0.345004
v -4.412412 0.551456 -0.364538
v -2.512964 -0.569353 -0.691432
v -6.456253 -0.412875 0.000000
v -2.513015 -0.660561 0.000000
v -6.455289 0.301057 -0.000000
v -2.512223 0.770234 -0.000000
v -7.877386 0.056516 -0.150743
v -7.877986 -0.389743 -0.150708
v -1.411880 0.834354 0.546759
v -1.411880 0.834354 -0.546759
v -7.877385 0.056516 0.150743
v -1.412316 -0.750245 -0.546732
v -7.877986 -0.389743 0.150708
v -1.412316 -0.750245 0.546732
v -6.455771 -0.055909 -0.359967
v 8.522491 -0.163689 0.262097
v 0.732017 0.758493 0.828818
v -0.738379 0.014821 0.859448
v -2.512619 0.054837 0.721526
v -6.455352 0.255547 0.345004
v 0.732017 0.758493 -0.828818
v -8.669361 -0.126106 -0.112096
v 4.384450 0.530574 -0.437615
v 6.412027 -0.365988 -0.508933
v 4.385563 -0.503489 -0.437570
v 2.484934 0.672915 -0.741802
v 4.384450 0.530574 0.437615
v 6.410985 0.265555 -0.000000
v 2.484878 0.763712 -0.000000
v 4.385563 -0.503489 0.437570
v 6.411057 0.222555 0.508990
v 2.485697 -0.569846 0.741757
v 6.412098 -0.408987 0.000000
v 2.485752 -0.660644 0.000000
v 1.393501 0.833976 -0.559683
v 1.393501 0.833976 0.559683
v 7.784657 -0.385730 -0.286884
v 7.783953 0.016353 -0.286912
v 1.393976 -0.750801 -0.559664
v 7.783954 0.016353 0.286912
v 1.393976 -0.750801 0.559664
v 7.784657 -0.385730 0.286884
v 6.411057 0.222555 -0.508990
v 2.485315 0.051534 -0.774031
v 6.411542 -0.071716 0.531090
v 2.484934 0.672915 0.741802
v 7.804743 -0.071192 0.429375
v 1.393600 0.504972 0.839519
v 1.393600 0.504972 -0.839519
v 7.804742 -0.071192 -0.429375
v 4.384681 0.315900 0.656409
v 4.384681 0.315900 -0.656409
v -1.411970 0.505387 0.820130
v -7.899921 -0.040193 0.224007
v -1.411970 0.505387 -0.820130
v -7.899920 -0.040193 -0.224007
v -4.412615 0.332125 -0.546789
v -4.412615 0.332125 0.546789
v 8.788682 -0.259772 0.000000
v -8.958336 -0.229369 0.000000
v -0.000787 0.495520 0.871169
v -0.000787 0.495520 -0.871169
v -0.738379 0.014821 -0.859448
v 0.732086 0.014798 -0.864850
v 0.732086 0.014798 0.864850
v -8.699068 -0.269153 -0.115503
v -8.669558 -0.403894 0.112080
v 8.549878 -0.287070 0.272801
v 8.549879 -0.287070 -0.272801
v -6.455771 -0.055909 0.359967
v -2.512619 0.054837 -0.721526
v -6.456191 -0.367365 -0.344932
v -0.738443 -0.728692 0.823632
v -2.512964 -0.569353 0.691432
v 6.411541 -0.071716 -0.531090
v 2.485316 0.051534 0.774030
v 2.485697 -0.569846 -0.741757
v 6.412028 -0.365988 0.508933
v -0.000786 -0.488115 -0.871167
v -0.000786 -0.488115 0.871167
v -8.958364 -0.381679 0.000000
v 8.788715 -0.386705 0.000000
v -4.413191 -0.285711 -0.546737
v 7.805145 -0.304436 0.429350
v 1.393877 -0.421798 0.839502
v 4.385333 -0.288815 -0.656369
v 7.805145 -0.304436 -0.429350
v -1.412225 -0.421279 0.820106
v -1.412225 -0.421279 -0.820106
v -7.900266 -0.299320 -0.223976
v -4.413190 -0.285711 0.546737
v -7.900264 -0.299320 0.223976
v 1.393877 -0.421798 -0.839502
v 4.385333 -0.288815 0.656369
v -0.000787 0.756798 -0.834870
v 4.385006 0.013542 0.656389
v -0.000787 0.756798 0.834870
v -0.502516 -1.940432 0.290433
v -8.918303 -0.179900 0.000000
v 1.393739 0.041587 -0.839510
v 7.799474 -0.008032 0.411655
v -7.900094 -0.169757 0.223991
v 8.751804 -0.217093 0.000000
v -4.413343 -0.449823 0.523943
v -4.412463 0.496237 -0.524019
v -4.413407 -0.518943 0.000000
v -4.412398 0.565357 -0.000000
v -7.894757 -0.367782 -0.214985
v -1.411874 0.855204 -0.000000
v -7.888584 0.059673 -0.000000
v -1.412293 -0.667424 -0.785929
v -7.894226 0.029840 0.215030
v -1.411902 0.751533 0.785964
v -1.412322 -0.771095 0.000000
v -7.889196 -0.396043 0.000000
v -1.412098 0.042054 0.820118
v 4.384508 0.476528 -0.629068
v 7.804943 -0.187814 -0.429363
v 1.393526 0.751145 0.804543
v 4.385504 -0.449443 -0.629010
v 4.384435 0.544180 -0.000000
v 4.384508 0.476528 0.629068
v 4.385578 -0.517095 0.000000
v 1.393495 0.854828 -0.000000
v 7.799474 -0.008032 -0.411655
v 1.393526 0.751145 -0.804543
v 7.794267 0.018970 -0.000000
v 1.393982 -0.771654 0.000000
v 7.794981 -0.391473 0.000000
v 1.393951 -0.667971 0.804518
v 7.800095 -0.366033 0.411619
v -1.411902 0.751533 -0.785964
v -7.894225 0.029840 -0.215030
v -4.412903 0.023207 -0.546763
v -4.412463 0.496237 0.524019
v 8.788699 -0.323238 0.000000
v -8.958350 -0.305524 0.000000
v -0.000787 0.003702 0.871168
v -0.000787 0.003702 -0.871168
v -0.000786 -0.749393 -0.834868
v -0.000786 -0.749393 0.834868
v -8.918372 -0.419922 0.000000
v 8.751884 -0.418221 0.000000
v -4.413343 -0.449823 -0.523943
v 7.804943 -0.187814 0.429363
v 1.393739 0.041587 0.839510
v 4.385006 0.013542 -0.656389
v 7.800095 -0.366033 -0.411619
v -1.412293 -0.667424 0.785928
v -1.412098 0.042054 -0.820118
v -7.900093 -0.169757 -0.223991
v -4.412903 0.023207 0.546763
v -7.894757 -0.367782 0.214985
v 1.393951 -0.667971 -0.804518
v 4.385505 -0.449443 0.629010
v 0.387392 -0.826378 -0.679172
v 0.316460 0.940381 -0.560517
v 0.390940 -0.826378 0.677123
v 0.313519 0.940374 0.562215
v 0.365627 0.497998 0.868010
v 0.365627 0.497998 -0.868010
v 0.365673 -0.479498 -0.868007
v 0.365673 -0.479498 0.868007
v 0.365615 0.757645 -0.831844
v 0.365615 0.757645 0.831844
v -0.580743 -1.940426 0.001513
v 0.365650 0.009250 0.868009
v 0.365650 0.009250 -0.868009
v 0.365685 -0.739145 -0.831839
v 0.365685 -0.739145 0.831839
v -0.395666 -0.826246 -0.677123
v -0.331765 0.940295 -0.562215
v -0.392117 -0.826247 0.679172
v -0.334707 0.940301 0.560517
v -0.369562 0.497950 0.865310
v -0.369562 0.497950 -0.865310
v -0.369604 -0.479427 -0.865305
v -0.369604 -0.479427 0.865305
v -0.369551 0.757566 -0.829257
v -0.369551 0.757566 0.829257
v -0.504029 -1.940445 -0.287813
v -0.369583 0.009262 0.865308
v -0.369583 0.009262 -0.865308
v -0.369615 -0.739043 -0.829250
v -0.369615 -0.739043 0.829250
v -0.667121 0.936504 0.377600
v -0.767766 0.936493 -0.001987
v -0.665133 0.936505 -0.381043
v -0.386723 0.936536 -0.657998
v -0.007135 0.936579 -0.758643
v 0.371920 0.936622 -0.656011
v 0.648875 0.936654 -0.377600
v 0.749520 0.936665 0.001987
v 0.646888 0.936654 0.381043
v 0.368478 0.936622 0.657998
v -0.011110 0.936579 0.758643
v -0.390166 0.936536 0.656011
v -0.007465 1.336711 -0.648190
v -0.007588 1.351925 -0.000000
v -0.376347 1.351993 -0.000000
v -0.010861 1.336711 0.648190
v 0.358809 1.352085 -0.000000
v 0.639086 1.338431 0.001698
v 0.313479 1.337569 0.562215
v 0.316420 1.337575 -0.560517
v -0.657413 1.338275 -0.001698
v -0.334747 1.337495 0.560517
v -0.331805 1.337490 -0.562215
v -0.571413 1.338289 0.322654
v -0.569714 1.338280 -0.325595
v 0.553087 1.338427 -0.322654
v 0.551388 1.338416 0.325595
v 0.285310 -1.940209 -0.501514
v -0.004009 -1.939795 -0.578210
v -0.292924 -1.940112 -0.500001
v 0.499037 -1.940621 0.287813
v 0.575750 -1.940627 -0.001513
v 0.497523 -1.940607 -0.290434
v -0.290303 -1.940104 0.501513
v -0.000983 -1.939795 0.578210
v 0.287931 -1.940218 0.500001
v -0.611655 -1.934233 -0.349576
v -0.704831 -1.934218 0.001838
v -0.609817 -1.934234 0.352759
v 0.347081 -1.934394 -0.609159
v -0.004333 -1.934335 -0.702336
v -0.355255 -1.934276 -0.607322
v 0.606664 -1.934438 0.349576
v 0.699840 -1.934454 -0.001838
v 0.604826 -1.934438 -0.352759
v -0.352072 -1.934277 0.609159
v -0.000658 -1.934336 0.702336
v 0.350264 -1.934395 0.607322
v -0.006775 -19.878109 -0.691251
v -0.003226 -19.908060 0.000002
v 0.402339 -19.895960 0.000002
v -0.003158 -19.878113 0.691253
v -0.411400 -19.895832 0.000002
v 0.686329 -19.879107 -0.001807
v 0.342241 -19.878616 0.597754
v 0.339108 -19.878605 -0.599559
v -0.696262 -19.878864 0.001811
v -0.349041 -19.878479 0.599562
v -0.352174 -19.878490 -0.597751
v -0.604551 -19.878887 -0.344080
v -0.602742 -19.878872 0.347216
v 0.594618 -19.879097 0.344083
v 0.592808 -19.879082 -0.347213
vn -0.0154 0.0689 -0.9975
vn -0.0939 0.4503 -0.8879
vn -0.0009 0.3617 -0.9323
vn -0.0036 0.0687 -0.9976
vn -0.1134 0.9154 -0.3862
vn -0.0029 0.5687 -0.8226
vn 0.0894 0.4603 -0.8832
vn 0.1105 0.9177 -0.3816
vn 0.0857 0.9839 -0.1569
vn 0.1110 0.9083 -0.4032
vn 0.0082 0.0691 -0.9976
vn 0.0226 0.1388 -0.9901
vn 0.0230 0.0695 -0.9973
vn 0.0666 -0.1047 0.9923
vn 0.0673 -0.0000 0.9977
vn 0.0618 -0.0000 0.9981
vn 0.0640 -0.0850 0.9943
vn 0.0807 0.1080 0.9909
vn 0.0696 0.0864 0.9938
vn 0.0657 0.0760 0.9949
vn 0.0608 -0.0000 0.9981
vn 0.0646 -0.0746 0.9951
vn 0.0082 0.0691 0.9976
vn 0.0889 0.4604 0.8833
vn -0.0012 0.3617 0.9323
vn -0.0036 0.0687 0.9976
vn 0.1095 0.9168 0.3840
vn -0.0065 0.5686 0.8226
vn -0.0944 0.4502 0.8879
vn -0.1144 0.9163 0.3838
vn -0.0868 0.9833 0.1601
vn -0.1182 0.9035 0.4119
vn -0.0154 0.0689 0.9975
vn -0.0358 0.1374 0.9899
vn -0.0365 0.0688 0.9970
vn -0.8624 -0.0726 0.5009
vn -0.9974 -0.0725 0.0026
vn -0.5010 -0.0726 -0.8624
vn -0.0026 -0.0727 -0.9974
vn -0.5009 -0.0726 -0.8624
vn 0.8650 -0.0728 0.4964
vn 0.5009 -0.0727 0.8624
vn 0.9973 -0.0728 -0.0026
vn -0.3132 0.1374 0.9397
vn -0.2456 0.1998 0.9486
vn -0.4407 0.3249 0.8368
vn -0.4227 0.1032 0.9004
vn -0.2696 0.9519 0.1457
vn -0.2287 0.9531 0.1981
vn -0.2612 0.9653 -0.0000
vn -0.2754 0.9613 -0.0000
vn -0.2287 0.9531 -0.1981
vn -0.2696 0.9519 -0.1458
vn -0.4227 0.1032 -0.9004
vn -0.4407 0.3249 -0.8368
vn -0.2456 0.1998 -0.9486
vn -0.3132 0.1374 -0.9397
vn 0.0270 -0.0706 -0.9971
vn 0.0234 -0.0000 -0.9997
vn 0.0491 -0.0000 -0.9988
vn 0.0540 -0.0707 -0.9960
vn 0.0506 0.0721 -0.9961
vn 0.0657 0.0760 -0.9949
vn 0.0608 -0.0000 -0.9981
vn 0.0646 -0.0746 -0.9951
vn 0.1565 0.9801 0.1221
vn 0.1564 0.9630 0.2195
vn 0.2081 0.9610 0.1820
vn 0.2023 0.9741 0.1014
vn 0.0914 0.2084 0.9738
vn 0.1628 0.1423 0.9763
vn 0.1694 0.2695 0.9480
vn 0.2251 0.1102 0.9681
vn 0.2536 0.3113 0.9159
vn 0.2750 0.9586 0.0743
vn 0.2448 0.9657 0.0866
vn -0.0917 -0.0677 0.9935
vn -0.0924 -0.0000 0.9957
vn -0.1142 -0.0000 0.9935
vn -0.1109 -0.0695 0.9914
vn -0.0998 0.0692 0.9926
vn -0.1253 0.0711 0.9896
vn -0.2735 0.0001 0.9619
vn -0.2837 -0.1354 0.9493
vn 0.6798 0.5451 -0.4906
vn 0.2750 0.9586 -0.0743
vn 0.2448 0.9657 -0.0866
vn 0.2636 0.9646 -0.0000
vn 0.2854 0.9584 -0.0000
vn 0.6798 0.5451 0.4906
vn -0.0905 -0.1369 0.9864
vn -0.0938 -0.1369 0.9861
vn -0.0927 -0.0681 0.9934
vn -0.0489 -0.9445 0.3249
vn -0.0405 -0.9820 0.1842
vn -0.0710 -0.9803 0.1843
vn -0.0778 -0.9421 0.3262
vn -0.0946 -0.9784 0.1841
vn -0.1002 -0.9402 0.3256
vn -0.0962 -0.1369 0.9859
vn -0.0935 -0.0680 0.9933
vn -0.0998 0.0692 -0.9926
vn -0.1061 0.1365 -0.9849
vn -0.1012 0.1368 -0.9854
vn -0.0966 0.0690 -0.9929
vn -0.1563 0.9323 -0.3261
vn -0.1532 0.9710 -0.1833
vn -0.1244 0.9752 -0.1829
vn -0.1285 0.9371 -0.3244
vn -0.0992 0.9780 -0.1834
vn -0.1039 0.9399 -0.3254
vn -0.0967 0.1369 -0.9859
vn -0.0939 0.0692 -0.9932
vn -0.0320 -0.9995 -0.0000
vn -0.0631 -0.9980 -0.0000
vn -0.0405 -0.9820 -0.1842
vn -0.0710 -0.9803 -0.1843
vn -0.0946 -0.9784 -0.1841
vn -0.0872 -0.9962 -0.0000
vn -0.1470 0.9891 -0.0000
vn -0.1177 0.9930 -0.0000
vn -0.1532 0.9710 0.1833
vn -0.1244 0.9752 0.1829
vn -0.0992 0.9780 0.1834
vn -0.0921 0.9958 -0.0000
vn -0.0917 -0.0677 -0.9935
vn -0.0905 -0.1369 -0.9864
vn -0.1057 -0.1407 -0.9844
vn -0.1109 -0.0695 -0.9914
vn -0.0489 -0.9445 -0.3249
vn -0.0048 -0.9824 -0.1868
vn -0.0129 -0.9456 -0.3252
vn 0.0114 -0.9820 -0.1886
vn -0.0053 -0.9892 -0.1465
vn -0.2104 -0.2152 -0.9536
vn -0.2837 -0.1354 -0.9493
vn -0.0912 0.9958 -0.0002
vn -0.1019 0.9948 -0.0000
vn -0.0809 0.9755 0.2047
vn -0.0869 0.9830 -0.1616
vn -0.0812 0.9754 -0.2049
vn -0.1889 0.9820 -0.0000
vn -0.1938 0.9624 0.1905
vn -0.1938 0.9624 -0.1905
vn -0.0404 -0.0699 -0.9967
vn -0.0425 -0.1374 -0.9896
vn -0.0816 -0.1370 -0.9872
vn -0.0781 -0.0684 -0.9946
vn -0.1066 -0.9568 -0.2704
vn -0.1000 -0.9800 -0.1720
vn -0.0942 -0.9804 -0.1729
vn -0.0918 -0.9532 -0.2882
vn -0.1002 -0.9402 -0.3256
vn -0.0962 -0.1369 -0.9859
vn -0.0935 -0.0680 -0.9933
vn -0.1061 0.1365 0.9849
vn -0.1305 0.1390 0.9817
vn -0.1563 0.9323 0.3261
vn -0.2038 0.9149 0.3485
vn -0.0749 0.1371 0.9877
vn -0.0746 0.0697 0.9948
vn -0.0637 0.9384 0.3396
vn -0.1039 0.9399 0.3254
vn -0.0967 0.1369 0.9859
vn -0.0939 0.0692 0.9932
vn -0.0923 -0.9957 0.0002
vn -0.0961 -0.9954 -0.0000
vn -0.1002 -0.9797 0.1735
vn -0.0944 -0.9804 0.1731
vn 0.0093 -1.0000 -0.0000
vn -0.0048 -0.9824 0.1868
vn 0.0114 -0.9820 0.1886
vn 0.0017 -1.0000 -0.0000
vn -0.0404 -0.0699 0.9967
vn -0.0371 -0.0000 0.9993
vn -0.0738 -0.0000 0.9973
vn -0.0781 -0.0684 0.9946
vn -0.0904 -0.0000 0.9959
vn 0.1565 0.9801 -0.1221
vn 0.1564 0.9630 -0.2195
vn 0.1272 0.9553 -0.2670
vn 0.1269 0.9806 -0.1495
vn 0.0914 0.2084 -0.9738
vn 0.0807 0.1080 -0.9909
vn 0.0696 0.0864 -0.9938
vn 0.0765 0.1694 -0.9826
vn 0.0698 0.1496 -0.9863
vn 0.1022 0.9483 -0.3006
vn 0.1012 0.9804 -0.1689
vn 0.0666 -0.1047 -0.9923
vn 0.0673 -0.0000 -0.9977
vn 0.1396 0.0001 -0.9902
vn 0.1323 -0.1380 -0.9816
vn 0.1628 0.1423 -0.9763
vn 0.2251 0.1102 -0.9681
vn 0.2057 0.0002 -0.9786
vn 0.1945 -0.1384 -0.9711
vn 0.0858 0.9836 0.1583
vn 0.1108 0.9078 0.4046
vn 0.0607 0.9417 0.3310
vn 0.0803 0.9767 0.1992
vn 0.0226 0.1388 0.9901
vn 0.0230 0.0695 0.9973
vn 0.0506 0.0721 0.9961
vn 0.0515 0.1415 0.9886
vn 0.0698 0.1496 0.9863
vn 0.1022 0.9483 0.3006
vn 0.1012 0.9804 0.1689
vn 0.0651 -0.2113 -0.9752
vn 0.0659 -0.1700 -0.9832
vn 0.0640 -0.0850 -0.9943
vn 0.0375 -0.9750 -0.2191
vn 0.0348 -0.9919 -0.1223
vn 0.0665 -0.9864 -0.1506
vn 0.0686 -0.9607 -0.2688
vn 0.0908 -0.9813 -0.1695
vn 0.0924 -0.9492 -0.3009
vn 0.0682 -0.1497 -0.9864
vn 0.1550 0.9879 -0.0000
vn 0.1249 0.9922 -0.0000
vn 0.1269 0.9806 0.1495
vn 0.0985 0.9951 -0.0000
vn 0.0765 0.1694 0.9826
vn 0.1272 0.9553 0.2670
vn 0.0324 -0.9995 -0.0000
vn 0.0637 -0.9980 -0.0000
vn 0.0348 -0.9919 0.1223
vn 0.0665 -0.9864 0.1506
vn 0.0908 -0.9813 0.1695
vn 0.0878 -0.9961 -0.0000
vn 0.0914 0.9958 0.0002
vn 0.1050 0.9945 -0.0000
vn 0.0801 0.9767 -0.1990
vn 0.1694 0.2695 -0.9480
vn 0.2023 0.9741 -0.1014
vn 0.2081 0.9610 -0.1820
vn 0.2536 0.3113 -0.9159
vn 0.0515 0.1415 -0.9886
vn 0.0604 0.9419 -0.3303
vn 0.1992 0.9800 -0.0000
vn 0.0987 -0.9807 0.1687
vn 0.0935 -0.9956 -0.0002
vn 0.0971 -0.9953 -0.0000
vn 0.0917 -0.9815 0.1679
vn 0.0989 -0.9804 -0.1702
vn 0.0919 -0.9815 -0.1680
vn -0.0106 -0.9999 -0.0000
vn -0.0040 -0.9952 0.0974
vn -0.0040 -0.9952 -0.0974
vn -0.0195 -0.9966 -0.0803
vn -0.0146 -0.9999 -0.0000
vn -0.0195 -0.9966 0.0803
vn 0.0270 -0.0706 0.9971
vn 0.0296 -0.1387 0.9899
vn 0.0583 -0.1414 0.9882
vn 0.0540 -0.0707 0.9960
vn 0.1035 -0.9581 0.2672
vn 0.0868 -0.9560 0.2804
vn 0.0924 -0.9492 0.3009
vn 0.0682 -0.1497 0.9864
vn 0.0651 -0.2113 0.9752
vn 0.1195 -0.2792 0.9528
vn 0.1323 -0.1380 0.9816
vn 0.0375 -0.9750 0.2191
vn -0.0001 -0.9857 0.1686
vn -0.0078 -0.9974 0.0713
vn 0.1736 -0.3198 0.9315
vn 0.1945 -0.1384 0.9711
vn -0.1179 0.9029 -0.4134
vn -0.0641 0.9381 -0.3403
vn -0.0358 0.1374 -0.9899
vn -0.0365 0.0688 -0.9970
vn -0.0746 0.0697 -0.9948
vn -0.0749 0.1371 -0.9877
vn -0.2038 0.9149 -0.3486
vn -0.1253 0.0711 -0.9896
vn -0.1305 0.1390 -0.9817
vn -0.0924 -0.0000 -0.9957
vn -0.0913 -0.0000 -0.9958
vn -0.0927 -0.0681 -0.9934
vn -0.0904 -0.0000 -0.9959
vn -0.1285 0.9371 0.3244
vn -0.0966 0.0690 0.9929
vn -0.1012 0.1368 0.9854
vn 0.7525 0.0004 -0.6586
vn 0.7524 0.0004 -0.6587
vn 0.7524 0.0004 0.6587
vn 0.7525 0.0004 0.6586
vn -0.4069 0.0001 0.9135
vn -0.3957 -0.1309 0.9090
vn -0.4069 0.0001 -0.9135
vn -0.2735 0.0001 -0.9619
vn -0.3957 -0.1309 -0.9090
vn 0.0103 -0.0691 0.9976
vn 0.0086 -0.0000 1.0000
vn -0.0036 -0.0000 1.0000
vn -0.0036 -0.0700 0.9975
vn -0.0159 -0.0000 0.9999
vn -0.0175 -0.0689 0.9975
vn -0.0175 -0.0689 -0.9975
vn -0.0159 -0.0000 -0.9999
vn -0.0036 -0.0000 -1.0000
vn -0.0036 -0.0700 -0.9975
vn 0.0086 -0.0000 -1.0000
vn 0.0103 -0.0691 -0.9976
vn -0.1333 -0.9012 -0.4125
vn -0.1246 -0.8646 -0.4867
vn 0.0004 -0.7736 -0.6337
vn -0.0046 -0.7735 -0.6338
vn -0.0190 -0.1375 -0.9903
vn -0.0035 -0.1377 -0.9905
vn 0.0119 -0.1380 -0.9904
vn 0.0296 -0.1387 -0.9899
vn 0.1296 -0.9018 -0.4124
vn 0.1213 -0.8689 -0.4800
vn 0.1034 -0.9578 -0.2682
vn 0.1307 -0.9033 0.4086
vn 0.1221 -0.8685 0.4805
vn -0.0009 -0.7736 0.6337
vn -0.0003 -0.7736 0.6337
vn 0.0119 -0.1380 0.9904
vn -0.0035 -0.1377 0.9905
vn -0.0190 -0.1375 0.9903
vn -0.0425 -0.1374 0.9896
vn -0.1322 -0.8996 0.4163
vn -0.1238 -0.8651 0.4861
vn -0.1065 -0.9565 0.2714
vn -0.0053 -0.9892 0.1465
vn -0.0060 -1.0000 -0.0000
vn -0.2104 -0.2152 0.9536
vn -0.3631 -0.3369 0.8687
vn -0.3631 -0.3369 -0.8687
vn -0.0078 -0.9974 -0.0713
vn -0.0050 -1.0000 -0.0000
vn 0.5751 -0.6077 -0.5478
vn 0.5751 -0.6077 0.5478
vn -0.0778 -0.9421 -0.3262
vn -0.0938 -0.1369 -0.9861
vn 0.1396 0.0001 0.9902
vn 0.2057 0.0002 0.9786
vn 0.0234 -0.0000 0.9997
vn 0.0491 -0.0000 0.9988
vn 0.0618 -0.0000 -0.9981
vn -0.0001 -0.9857 -0.1686
vn 0.1195 -0.2792 -0.9528
vn 0.1736 -0.3198 -0.9315
vn -0.0920 -0.9530 0.2887
vn -0.0816 -0.1370 0.9872
vn -0.0371 -0.0000 -0.9993
vn -0.0738 -0.0000 -0.9973
vn -0.1142 -0.0000 -0.9935
vn -0.0913 -0.0000 0.9958
vn -0.0129 -0.9456 0.3252
vn -0.1057 -0.1407 0.9844
vn 0.0870 -0.9558 -0.2808
vn 0.0583 -0.1414 -0.9882
vn 0.0686 -0.9607 0.2688
vn 0.0659 -0.1700 0.9832
vn -0.8651 -0.0726 -0.4964
vn -0.8650 -0.0726 -0.4964
vn 0.0026 -0.0727 0.9974
vn -0.4964 -0.0726 0.8650
vn 0.4964 -0.0727 -0.8650
vn 0.8624 -0.0728 -0.5009
vn -0.0343 0.9992 0.0197
vn -0.0415 0.9991 -0.0001
vn -0.0341 0.9992 -0.0198
vn -0.0169 0.9994 -0.0295
vn -0.0000 0.9995 -0.0306
vn 0.0169 0.9994 -0.0295
vn 0.0341 0.9992 -0.0197
vn 0.0414 0.9991 0.0001
vn 0.0340 0.9992 0.0199
vn 0.0167 0.9994 0.0295
vn -0.0002 0.9995 0.0306
vn -0.0171 0.9994 0.0295
vn -0.0427 -0.9988 -0.0245
vn -0.0500 -0.9988 0.0001
vn -0.0425 -0.9988 0.0246
vn 0.0230 -0.9989 -0.0407
vn -0.0003 -0.9990 -0.0456
vn -0.0236 -0.9989 -0.0406
vn 0.0424 -0.9988 0.0245
vn 0.0497 -0.9988 -0.0001
vn 0.0422 -0.9988 -0.0247
vn -0.0234 -0.9989 0.0407
vn -0.0001 -0.9990 0.0456
vn 0.0233 -0.9989 0.0407
vn 0.4975 0.0062 -0.8674
vn 0.8646 0.0062 -0.5024
vn 0.8647 0.0062 -0.5022
vn 0.4979 0.0062 -0.8672
vn -0.0026 -0.0000 1.0000
vn 0.4973 0.0001 0.8676
vn 0.4980 0.0001 0.8672
vn 0.8646 0.0001 0.5025
vn 0.8648 0.0001 0.5021
vn 0.0026 -0.0000 -1.0000
vn -0.4973 -0.0001 -0.8676
vn -0.4980 -0.0001 -0.8672
vn 1.0000 0.0001 0.0026
vn 0.5018 0.0001 -0.8650
vn 0.5026 0.0001 -0.8645
vn -0.8646 -0.0001 -0.5025
vn -1.0000 -0.0001 -0.0026
vn -0.8648 -0.0001 -0.5021
vn -0.5018 -0.0001 0.8650
vn -0.5026 -0.0001 0.8645
vn 0.8672 0.0001 -0.4980
vn 0.8674 0.0001 -0.4976
vn 0.0106 0.9997 -0.0238
vn -0.0001 0.9997 -0.0246
vn -0.0001 1.0000 -0.0000
vn 0.0189 0.9998 -0.0000
vn -0.0107 0.9997 -0.0238
vn -0.0346 0.9992 -0.0215
vn -0.0347 0.9994 -0.0001
vn -0.0191 0.9998 -0.0000
vn -0.0348 0.9992 0.0214
vn -0.0108 0.9997 0.0238
vn -0.0002 0.9997 0.0246
vn 0.0105 0.9997 0.0238
vn 0.0346 0.9994 0.0001
vn 0.0345 0.9992 0.0216
vn 0.0347 0.9992 -0.0214
vn -0.8672 -0.0001 0.4980
vn -0.8674 -0.0001 0.4976
vn -0.8646 0.0064 0.5024
vn -1.0000 0.0064 0.0026
vn -0.8647 0.0064 0.5022
vn -0.4975 0.0064 0.8674
vn -0.4979 0.0064 0.8672
vn 1.0000 0.0062 -0.0026
vn 0.8672 0.0062 0.4978
vn 0.8674 0.0062 0.4977
vn 0.5020 0.0062 0.8648
vn 0.5024 0.0062 0.8646
vn -0.8673 0.0064 -0.4978
vn -0.8674 0.0064 -0.4977
vn -0.5020 0.0064 -0.8648
vn -0.0026 0.0063 -1.0000
vn -0.5024 0.0064 -0.8646
vn 0.0026 0.0063 1.0000
vn -0.0262 -0.9991 -0.0343
vn -0.0002 -0.9993 -0.0376
vn -0.0001 -1.0000 -0.0000
vn -0.0322 -0.9995 -0.0000
vn 0.0258 -0.9991 -0.0345
vn 0.0422 -0.9988 -0.0254
vn 0.0424 -0.9991 -0.0002
vn 0.0320 -0.9995 -0.0000
vn 0.0425 -0.9988 0.0252
vn 0.0260 -0.9991 0.0344
vn -0.0001 -0.9993 0.0376
vn -0.0261 -0.9991 0.0344
vn -0.0427 -0.9991 0.0002
vn -0.0425 -0.9988 0.0253
vn -0.0428 -0.9988 -0.0252
vt 0.570622 0.333333
vt 0.608669 0.331597
vt 0.608669 0.375000
vt 0.570622 0.375000
vt 0.625000 0.312500
vt 0.625000 0.375000
vt 0.608625 0.418837
vt 0.625000 0.437500
vt 0.625000 0.500000
vt 0.608581 0.462674
vt 0.570621 0.416667
vt 0.570621 0.458333
vt 0.429379 0.750000
vt 0.500000 0.750000
vt 0.570621 0.750000
vt 0.571828 0.835504
vt 0.608926 0.831597
vt 0.609272 0.875868
vt 0.573034 0.879340
vt 0.625000 0.812500
vt 0.625000 0.875000
vt 0.610479 0.920573
vt 0.625000 0.937500
vt 0.625000 1.000000
vt 0.611685 0.965278
vt 0.586305 0.939670
vt 0.599576 1.000000
vt 0.125000 0.750000
vt 0.159722 0.625000
vt 0.375000 0.312500
vt 0.375000 0.375000
vt 0.375000 0.750000
vt 0.375000 0.812500
vt 0.340454 0.625000
vt 0.599576 0.000000
vt 0.612288 0.000000
vt 0.609272 0.120660
vt 0.573034 0.119792
vt 0.625000 0.000000
vt 0.625000 0.125000
vt 0.625000 0.250000
vt 0.608669 0.211806
vt 0.570622 0.208333
vt 0.429379 0.458333
vt 0.500000 0.458333
vt 0.500000 0.494792
vt 0.429379 0.494792
vt 0.570621 0.494792
vt 0.570621 0.500000
vt 0.500000 0.500000
vt 0.429379 0.500000
vt 0.620763 0.708333
vt 0.608139 0.744792
vt 0.608070 0.739776
vt 0.620400 0.704765
vt 0.570622 0.744792
vt 0.570622 0.708333
vt 0.607864 0.704765
vt 0.618644 0.687500
vt 0.429379 1.000000
vt 0.500000 1.000000
vt 0.426966 1.000000
vt 0.570621 1.000000
vt 0.573034 1.000000
vt 0.400424 1.000000
vt 0.570622 0.541667
vt 0.607865 0.545235
vt 0.608002 0.625000
vt 0.570622 0.625000
vt 0.618644 0.562500
vt 0.620037 0.625000
vt 0.391331 1.000000
vt 0.390728 1.000000
vt 0.375000 1.000000
vt 0.387712 1.000000
vt 0.570622 0.250000
vt 0.608669 0.250000
vt 0.125000 0.625000
vt 0.125000 0.500000
vt 0.875000 0.500000
vt 0.875000 0.625000
vt 0.875000 0.750000
vt 0.429379 0.250000
vt 0.391331 0.250000
vt 0.391331 0.245660
vt 0.429379 0.244792
vt 0.375000 0.250000
vt 0.391331 0.211806
vt 0.429379 0.208333
vt 0.840278 0.625000
vt 0.871528 0.625000
vt 0.429379 0.291667
vt 0.391331 0.288194
vt 0.391331 0.254340
vt 0.429379 0.255208
vt 0.608669 1.000000
vt 0.609272 1.000000
vt 0.612288 1.000000
vt 0.612288 0.996528
vt 0.611685 1.000000
vt 0.128472 0.625000
vt 0.502413 1.000000
vt 0.424553 1.000000
vt 0.620763 0.541667
vt 0.608139 0.505208
vt 0.500000 0.505208
vt 0.429379 0.505208
vt 0.570621 0.505208
vt 0.500000 0.541667
vt 0.429379 0.541667
vt 0.625000 0.750000
vt 0.608581 0.787326
vt 0.608227 0.750000
vt 0.621984 0.712674
vt 0.570622 0.791667
vt 0.570621 0.755208
vt 0.391861 0.505208
vt 0.379237 0.541667
vt 0.623941 0.625000
vt 0.376059 0.625000
vt 0.379237 0.708333
vt 0.659546 0.625000
vt 0.627589 0.625000
vt 0.621984 0.537326
vt 0.608071 0.510224
vt 0.620400 0.545235
vt 0.608227 0.500000
vt 0.623450 0.625000
vt 0.372411 0.625000
vt 0.378016 0.712674
vt 0.375000 0.500000
vt 0.378016 0.537326
vt 0.376550 0.625000
vt 0.379600 0.704765
vt 0.379600 0.545235
vt 0.381356 0.562500
vt 0.379963 0.625000
vt 0.381356 0.687500
vt 0.429379 0.791667
vt 0.391419 0.787326
vt 0.391773 0.750000
vt 0.429379 0.755208
vt 0.391861 0.744792
vt 0.391930 0.739776
vt 0.429379 0.744792
vt 0.392136 0.704765
vt 0.429379 0.708333
vt 0.608669 0.288194
vt 0.608669 0.254340
vt 0.570622 0.291667
vt 0.570621 0.255208
vt 0.608669 0.245660
vt 0.570622 0.244792
vt 0.500000 0.250000
vt 0.500000 0.625000
vt 0.429379 0.625000
vt 0.500000 0.708333
vt 0.400424 0.000000
vt 0.500000 0.000000
vt 0.500000 0.119792
vt 0.426966 0.119792
vt 0.500000 0.208333
vt 0.428172 0.835937
vt 0.500000 0.835938
vt 0.500000 0.880208
vt 0.426966 0.880208
vt 0.500000 0.940104
vt 0.413695 0.940104
vt 0.429379 0.333333
vt 0.500000 0.333333
vt 0.500000 0.375000
vt 0.429379 0.375000
vt 0.500000 0.416667
vt 0.429379 0.416667
vt 0.391331 0.331597
vt 0.391331 0.375000
vt 0.391375 0.418837
vt 0.391420 0.462674
vt 0.375000 0.437500
vt 0.391074 0.833333
vt 0.390728 0.879340
vt 0.375000 0.875000
vt 0.389220 0.939670
vt 0.375000 0.937500
vt 0.375000 0.000000
vt 0.387712 0.000000
vt 0.390728 0.120660
vt 0.375000 0.125000
vt 0.392136 0.545235
vt 0.391998 0.625000
vt 0.500000 0.744792
vt 0.500000 0.791667
vt 0.500000 0.755208
vt 0.391930 0.510224
vt 0.390125 1.000000
vt 0.500000 0.291667
vt 0.500000 0.255208
vt 0.500000 0.244792
vt 0.391773 0.500000
vt 0.844073 0.713132
vt 0.827574 0.624923
vt 0.844085 0.536797
vt 0.798481 0.525725
vt 0.750036 0.518209
vt 0.750000 0.500000
vt 0.812500 0.500000
vt 0.698482 0.520198
vt 0.655917 0.536883
vt 0.687500 0.500000
vt 0.672300 0.625077
vt 0.655905 0.713189
vt 0.701546 0.724246
vt 0.750036 0.731808
vt 0.750000 0.750000
vt 0.687500 0.750000
vt 0.801542 0.729809
vt 0.812500 0.750000
vt 0.161588 0.543396
vt 0.175147 0.625094
vt 0.161573 0.706692
vt 0.295586 0.531065
vt 0.249957 0.522083
vt 0.250000 0.500000
vt 0.312500 0.500000
vt 0.200749 0.524454
vt 0.187500 0.500000
vt 0.338421 0.706587
vt 0.324968 0.624906
vt 0.338436 0.543325
vt 0.204381 0.718970
vt 0.249957 0.727898
vt 0.250000 0.750000
vt 0.187500 0.750000
vt 0.299222 0.725538
vt 0.312500 0.750000
vt 0.750000 0.625000
vt 0.704773 0.625000
vt 0.795139 0.625000
vt 0.250000 0.625000
vt 0.204861 0.625000
vt 0.295227 0.625000
s 1
usemtl Material.003
f 270/1/1 273/2/2 189/3/3 156/4/4
f 273/2/2 283/5/5 284/6/6 189/3/3
f 258/7/7 285/8/8 286/9/9 115/10/10
f 255/11/11 258/7/7 115/10/12 26/12/13
f 64/13/14 139/14/15 190/14/16 188/13/17
f 139/14/15 47/15/18 145/15/19 190/14/16
f 190/14/16 145/15/19 48/15/20 170/14/21
f 188/13/17 190/14/16 170/14/21 62/13/22
f 254/16/23 259/17/24 191/18/25 155/19/26
f 259/17/24 289/20/27 290/21/28 191/18/25
f 274/22/29 291/23/30 280/24/31 66/25/32
f 269/26/33 274/22/29 66/25/34 28/27/35
f 1/28/36 65/29/37 317/29/37 318/28/36
f 265/30/38 69/31/39 320/31/39 321/30/40
f 5/32/41 252/33/42 327/33/42 322/32/41
f 72/34/43 5/32/41 322/32/41 323/34/43
f 37/35/44 78/36/45 193/37/46 154/38/47
f 78/36/48 11/39/49 79/40/50 193/37/51
f 193/37/51 79/40/50 12/41/52 116/42/53
f 154/38/54 193/37/55 116/42/56 38/43/57
f 50/44/58 158/45/59 194/46/60 187/47/61
f 158/45/59 26/12/13 143/48/62 194/46/60
f 194/46/60 143/48/62 46/49/63 138/50/64
f 187/47/61 194/46/60 138/50/64 63/51/65
f 34/52/66 125/53/67 195/54/68 134/55/69
f 125/53/70 47/15/18 141/56/71 195/54/72
f 195/54/72 141/56/71 39/57/73 110/58/74
f 134/55/69 195/54/68 110/58/75 13/59/76
f 56/60/77 164/61/78 196/61/79 186/62/80
f 164/61/78 41/63/81 148/64/82 196/61/79
f 196/61/79 148/64/82 37/27/44 84/61/83
f 186/62/80 196/61/79 84/61/83 53/65/84
f 40/66/85 82/67/85 197/68/85 153/69/85
f 82/67/86 16/70/87 88/71/88 197/68/89
f 197/68/89 88/71/88 13/59/76 110/58/75
f 153/69/90 197/68/90 110/58/90 39/57/90
f 56/60/77 90/72/91 198/73/92 185/62/93
f 90/72/94 21/74/95 91/74/96 198/73/97
f 198/73/97 91/74/96 22/74/98 168/75/99
f 185/62/93 198/73/92 168/75/100 60/65/101
f 43/76/102 94/77/103 199/77/104 151/76/105
f 94/77/106 17/41/107 95/41/108 199/77/109
f 199/77/109 95/41/108 18/41/110 81/77/111
f 151/76/105 199/77/104 81/77/112 44/76/113
f 21/28/95 97/78/114 200/78/115 91/28/96
f 97/78/114 24/79/116 93/79/117 200/78/115
f 200/78/115 93/79/117 23/79/118 98/78/119
f 91/28/96 200/78/115 98/78/119 22/28/98
f 17/80/107 99/81/120 201/81/121 95/80/108
f 99/81/120 20/82/122 89/82/123 201/81/121
f 201/81/121 89/82/123 19/82/124 100/81/125
f 95/80/108 201/81/121 100/81/125 18/80/110
f 58/83/126 166/84/127 202/85/128 184/86/129
f 166/84/130 24/87/116 102/87/131 202/85/132
f 202/85/132 102/87/131 9/87/133 80/88/134
f 184/86/129 202/85/128 80/88/135 52/89/136
f 280/82/31 281/90/137 203/91/138 103/82/139
f 281/90/137 282/80/140 104/80/141 203/91/138
f 203/91/138 104/80/141 18/80/110 100/81/125
f 103/82/139 203/91/138 100/81/125 19/82/124
f 20/82/122 99/81/120 204/81/142 105/82/143
f 99/81/120 17/80/107 101/80/144 204/81/142
f 204/81/142 101/80/144 12/80/52 79/81/50
f 105/82/143 204/81/142 79/81/50 11/82/49
f 49/92/145 68/93/146 205/94/147 183/95/148
f 68/93/149 3/87/150 106/87/151 205/94/152
f 205/94/152 106/87/151 23/87/118 96/84/153
f 183/95/148 205/94/147 96/84/154 57/83/155
f 41/63/81 114/96/156 206/97/157 148/64/82
f 114/96/158 20/24/122 105/24/143 206/97/159
f 206/97/159 105/24/143 11/24/49 78/98/48
f 148/64/82 206/97/157 78/98/45 37/27/44
f 28/27/35 66/25/34 207/99/160 147/27/161
f 66/25/32 280/24/31 103/24/139 207/99/162
f 207/99/162 103/24/139 19/24/124 92/100/163
f 147/27/161 207/99/160 92/100/164 42/27/165
f 3/79/150 65/29/166 208/101/167 106/79/151
f 65/29/166 1/28/168 108/28/169 208/101/167
f 208/101/167 108/28/169 22/28/98 98/78/119
f 106/79/151 208/101/167 98/78/119 23/79/118
f 24/79/116 97/78/114 209/78/170 102/79/131
f 97/78/114 21/28/95 107/28/171 209/78/170
f 209/78/170 107/28/171 10/28/172 77/78/173
f 102/79/131 209/78/170 77/78/173 9/79/133
f 59/65/174 112/61/175 210/102/176 182/103/177
f 112/61/175 28/27/35 147/27/161 210/102/176
f 210/102/176 147/27/161 42/27/165 113/61/178
f 182/103/177 210/102/176 113/61/178 60/65/101
f 30/104/179 137/105/180 211/105/181 117/104/182
f 137/105/183 45/49/184 146/49/185 211/105/186
f 211/105/186 146/49/185 46/49/63 120/105/187
f 117/104/182 211/105/181 120/105/188 29/104/189
f 61/51/190 169/50/191 212/106/192 181/107/193
f 169/50/191 45/49/184 144/108/194 212/106/192
f 212/106/192 144/108/194 40/66/195 163/109/196
f 181/107/193 212/106/192 163/109/196 55/110/197
f 288/111/198 111/112/199 213/113/200 130/114/201
f 111/112/202 25/115/203 142/116/204 213/113/205
f 213/113/205 142/116/204 48/15/20 140/53/206
f 130/114/201 213/113/200 140/53/207 33/52/208
f 61/51/190 118/117/209 214/117/210 180/51/211
f 118/117/212 31/118/213 119/118/214 214/117/215
f 214/117/215 119/118/214 32/118/216 171/117/217
f 180/51/211 214/117/210 171/117/218 63/51/65
f 34/52/66 122/119/219 215/119/220 121/52/221
f 122/119/219 30/104/179 117/104/182 215/119/220
f 215/119/220 117/104/182 29/104/189 123/119/222
f 121/52/221 215/119/220 123/119/222 33/52/208
f 47/15/18 125/53/70 216/53/223 145/15/19
f 125/53/67 34/52/66 121/52/221 216/53/224
f 216/53/224 121/52/221 33/52/208 140/53/207
f 145/15/19 216/53/223 140/53/206 48/15/20
f 31/118/213 127/120/225 217/120/226 119/118/214
f 127/120/225 36/121/227 124/121/228 217/120/226
f 217/120/226 124/121/228 35/121/229 128/120/230
f 119/118/214 217/120/226 128/120/230 32/118/216
f 286/9/9 287/122/231 218/123/232 129/124/233
f 287/122/231 288/111/198 130/114/201 218/123/232
f 218/123/232 130/114/201 33/52/208 123/119/222
f 129/124/233 218/123/232 123/119/222 29/104/189
f 45/49/184 137/105/183 219/125/234 144/108/194
f 137/105/180 30/104/179 132/126/235 219/125/236
f 219/125/236 132/126/235 16/70/87 82/67/86
f 144/108/194 219/125/234 82/67/237 40/66/195
f 26/12/13 115/10/12 220/127/238 143/48/62
f 115/10/10 286/9/9 129/124/233 220/127/239
f 220/127/239 129/124/233 29/104/189 120/105/188
f 143/48/62 220/127/238 120/105/187 46/49/63
f 30/104/179 122/119/219 221/128/240 132/126/235
f 122/119/219 34/52/66 134/55/69 221/128/240
f 221/128/240 134/55/69 13/59/76 88/71/88
f 132/126/235 221/128/240 88/71/88 16/70/87
f 5/32/241 72/34/242 222/129/243 135/130/244
f 72/34/242 7/131/245 133/132/246 222/129/243
f 222/129/243 133/132/246 32/118/216 128/120/230
f 135/130/244 222/129/243 128/120/230 35/121/229
f 36/121/227 127/120/225 223/133/247 136/134/248
f 127/120/225 31/118/213 131/135/249 223/133/247
f 223/133/247 131/135/249 15/136/250 83/137/251
f 136/134/248 223/133/247 83/137/251 14/138/252
f 51/139/253 74/140/254 224/141/255 179/142/256
f 74/140/257 5/32/241 135/130/244 224/141/258
f 224/141/258 135/130/244 35/121/229 126/143/259
f 179/142/256 224/141/255 126/143/260 62/13/22
f 64/13/14 172/143/261 225/144/262 178/145/263
f 172/143/264 36/121/227 136/134/248 225/144/265
f 225/144/265 136/134/248 14/138/252 85/146/266
f 178/145/263 225/144/262 85/146/267 54/147/268
f 282/41/140 87/148/269 226/149/270 104/41/141
f 87/148/271 27/150/272 149/151/273 226/149/274
f 226/149/274 149/151/273 44/76/113 81/77/112
f 104/41/141 226/149/270 81/77/111 18/41/110
f 17/41/107 94/77/106 227/152/275 101/41/144
f 94/77/103 43/76/102 150/153/276 227/152/277
f 227/152/277 150/153/276 38/43/57 116/42/56
f 101/41/144 227/152/275 116/42/53 12/41/52
f 58/83/126 109/154/278 228/154/279 177/83/280
f 109/154/278 43/76/102 151/76/105 228/154/279
f 228/154/279 151/76/105 44/76/113 165/154/281
f 177/83/280 228/154/279 165/154/281 57/83/155
f 20/24/122 114/96/158 229/97/282 89/24/123
f 114/96/156 41/63/81 152/64/283 229/97/284
f 229/97/284 152/64/283 42/27/165 92/100/164
f 89/24/123 229/97/282 92/100/163 19/24/124
f 55/110/285 163/109/286 230/155/286 176/156/285
f 163/109/286 40/66/286 153/69/286 230/155/286
f 230/155/287 153/69/287 39/57/287 162/157/287
f 176/156/288 230/155/287 162/157/287 54/147/288
f 53/158/84 84/159/83 231/160/289 175/161/290
f 84/159/83 37/35/44 154/38/47 231/160/289
f 231/160/291 154/38/54 38/43/57 160/162/292
f 175/161/293 231/160/291 160/162/292 52/89/136
f 257/163/294 261/164/295 232/165/296 174/166/297
f 261/164/295 254/16/23 155/19/26 232/165/296
f 276/167/298 269/26/33 28/27/35 112/61/175
f 272/168/299 276/167/298 112/61/175 59/65/174
f 271/169/300 277/170/301 233/171/302 173/172/303
f 277/170/301 270/1/1 156/4/4 233/171/302
f 262/173/304 255/11/11 26/12/13 158/45/59
f 256/174/305 262/173/304 158/45/59 50/44/58
f 265/30/306 278/175/307 234/176/308 69/31/309
f 278/175/310 271/169/300 173/172/303 234/176/311
f 263/177/312 256/174/305 50/44/58 71/178/313
f 250/179/314 263/177/315 71/178/316 7/131/245
f 252/33/317 264/180/318 235/181/319 75/182/320
f 264/180/321 257/163/294 174/166/297 235/181/322
f 279/183/323 272/168/299 59/65/174 167/75/324
f 267/184/325 279/183/326 167/75/327 1/74/168
f 10/185/172 161/186/328 236/187/329 77/188/173
f 161/186/330 53/158/84 175/161/290 236/187/331
f 236/187/332 175/161/293 52/89/136 80/88/135
f 77/188/173 236/187/329 80/88/134 9/87/133
f 15/136/250 86/189/333 237/190/334 83/137/251
f 86/189/335 55/110/335 176/156/335 237/190/335
f 237/190/336 176/156/336 54/147/336 85/146/336
f 83/137/251 237/190/334 85/146/266 14/138/252
f 24/87/116 166/84/130 238/84/337 93/87/117
f 166/84/127 58/83/126 177/83/280 238/84/338
f 238/84/338 177/83/280 57/83/155 96/84/154
f 93/87/117 238/84/337 96/84/153 23/87/118
f 47/15/18 139/14/15 239/191/339 141/56/71
f 139/14/15 64/13/14 178/145/263 239/191/339
f 239/191/339 178/145/263 54/147/268 162/157/340
f 141/56/71 239/191/339 162/157/340 39/57/73
f 25/115/203 159/192/341 240/193/342 142/116/204
f 159/192/341 51/139/253 179/142/256 240/193/342
f 240/193/342 179/142/256 62/13/22 170/14/21
f 142/116/204 240/193/342 170/14/21 48/15/20
f 45/49/184 169/50/191 241/50/343 146/49/185
f 169/50/191 61/51/190 180/51/211 241/50/343
f 241/50/343 180/51/211 63/51/65 138/50/64
f 146/49/185 241/50/343 138/50/64 46/49/63
f 31/118/213 118/117/212 242/194/344 131/135/249
f 118/117/209 61/51/190 181/107/193 242/194/345
f 242/194/345 181/107/193 55/110/197 86/189/346
f 131/135/249 242/194/344 86/189/333 15/136/250
f 1/74/168 167/75/327 243/195/347 108/74/169
f 167/75/324 59/65/174 182/103/177 243/195/348
f 243/195/348 182/103/177 60/65/101 168/75/100
f 108/74/169 243/195/347 168/75/99 22/74/98
f 27/150/272 157/196/349 244/197/350 149/151/273
f 157/196/349 49/92/145 183/95/148 244/197/350
f 244/197/350 183/95/148 57/83/155 165/154/281
f 149/151/273 244/197/350 165/154/281 44/76/113
f 43/76/102 109/154/278 245/198/351 150/153/276
f 109/154/278 58/83/126 184/86/129 245/198/351
f 245/198/351 184/86/129 52/89/136 160/162/292
f 150/153/276 245/198/351 160/162/292 38/43/57
f 41/63/81 164/61/78 246/61/352 152/64/283
f 164/61/78 56/60/77 185/62/93 246/61/352
f 246/61/352 185/62/93 60/65/101 113/61/178
f 152/64/283 246/61/352 113/61/178 42/27/165
f 21/74/95 90/72/94 247/73/353 107/74/171
f 90/72/91 56/60/77 186/62/80 247/73/354
f 247/73/354 186/62/80 53/65/84 161/75/330
f 107/74/171 247/73/353 161/75/328 10/74/172
f 7/131/245 71/178/316 248/199/355 133/132/246
f 71/178/313 50/44/58 187/47/61 248/199/356
f 248/199/356 187/47/61 63/51/65 171/117/218
f 133/132/246 248/199/355 171/117/217 32/118/216
f 36/121/227 172/143/264 249/143/357 124/121/228
f 172/143/261 64/13/14 188/13/17 249/143/358
f 249/143/358 188/13/17 62/13/22 126/143/260
f 124/121/228 249/143/357 126/143/259 35/121/229
f 74/140/254 51/139/253 257/163/294 264/180/321
f 5/32/241 74/140/257 264/180/318 252/33/317
f 69/31/309 234/176/308 263/177/315 250/179/314
f 234/176/311 173/172/303 256/174/305 263/177/312
f 173/172/303 233/171/302 262/173/304 256/174/305
f 233/171/302 156/4/4 255/11/11 262/173/304
f 159/192/341 25/115/203 254/16/23 261/164/295
f 51/139/253 159/192/341 261/164/295 257/163/294
f 65/29/37 3/79/359 316/79/360 317/29/37
f 75/182/361 267/184/362 325/184/362 326/182/361
f 111/112/199 288/111/198 289/20/27 259/17/24
f 25/115/203 111/112/202 259/17/24 254/16/23
f 156/4/4 189/3/3 258/7/7 255/11/11
f 189/3/3 284/6/6 285/8/8 258/7/7
f 75/182/320 235/181/319 279/183/326 267/184/325
f 235/181/322 174/166/297 272/168/299 279/183/323
f 68/93/146 49/92/145 271/169/300 278/175/310
f 3/87/150 68/93/149 278/175/307 265/30/306
f 157/196/349 27/150/272 270/1/1 277/170/301
f 49/92/145 157/196/349 277/170/301 271/169/300
f 174/166/297 232/165/296 276/167/298 272/168/299
f 232/165/296 155/19/26 269/26/33 276/167/298
f 250/179/363 7/131/364 324/131/364 319/179/363
f 267/184/362 1/74/36 318/74/36 325/184/362
f 155/19/26 191/18/25 274/22/29 269/26/33
f 191/18/25 290/21/28 291/23/30 274/22/29
f 87/148/269 282/41/140 283/5/5 273/2/2
f 27/150/272 87/148/271 273/2/2 270/1/1
f 2/200/365 67/201/366 281/90/137 280/82/31
f 67/201/366 4/202/367 282/80/140 281/90/137
f 266/203/368 70/204/369 284/205/369 283/206/5
f 251/207/370 8/208/371 286/9/9 285/209/8
f 8/208/371 73/210/372 287/122/231 286/9/9
f 73/210/372 6/211/373 288/111/198 287/122/231
f 253/212/374 76/213/375 290/214/375 289/215/27
f 268/216/376 2/200/365 280/82/31 291/217/30
f 70/204/369 251/207/370 285/209/8 284/205/369
f 6/211/373 253/212/374 289/215/27 288/111/198
f 4/202/367 266/203/368 283/206/5 282/80/140
f 76/213/375 268/216/376 291/217/30 290/214/375
f 69/31/39 250/179/363 319/179/363 320/31/39
f 7/131/364 72/34/43 323/34/43 324/131/364
f 252/33/42 75/182/361 326/182/361 327/33/42
f 3/87/359 265/30/38 321/30/40 316/87/360
f 275/218/377 260/219/378 317/29/378 316/79/377
f 260/219/378 192/220/379 318/28/379 317/29/378
f 307/221/380 308/222/381 320/223/381 319/224/380
f 309/225/382 275/218/377 316/79/377 321/226/382
f 310/227/383 311/228/384 323/34/384 322/32/383
f 311/228/384 312/229/385 324/131/385 323/34/384
f 313/230/386 314/231/387 326/232/387 325/233/386
f 315/234/388 310/227/383 322/32/383 327/235/388
f 312/229/385 307/221/380 319/224/380 324/131/385
f 314/231/387 315/234/388 327/235/388 326/232/387
f 308/222/381 309/225/382 321/226/382 320/223/381
f 192/220/379 313/230/386 325/233/386 318/28/379
usemtl Material.004
f 307/221/389 312/229/390 342/229/391 335/221/392
f 76/213/393 253/212/394 298/212/395 295/213/393
f 253/212/394 6/211/396 306/211/397 298/212/395
f 70/204/398 266/203/399 302/203/400 292/204/398
f 6/211/396 73/210/401 297/210/401 306/211/397
f 251/207/402 70/204/398 292/204/398 299/207/403
f 4/202/404 67/201/405 300/201/405 304/202/406
f 268/216/407 76/213/393 295/213/393 301/216/408
f 73/210/401 8/208/409 305/208/410 297/210/401
f 299/207/411 292/204/412 293/236/413 296/237/414
f 302/203/415 304/202/416 300/201/417 294/238/418
f 294/238/418 300/201/417 303/200/419 301/216/420
f 296/237/414 293/236/413 295/213/421 298/212/422
f 297/210/423 296/237/414 298/212/422 306/211/424
f 305/208/425 299/207/411 296/237/414 297/210/423
f 293/236/413 294/238/418 301/216/420 295/213/421
f 292/204/412 302/203/415 294/238/418 293/236/413
f 8/208/409 251/207/402 299/207/403 305/208/410
f 266/203/399 4/202/404 304/202/406 302/203/400
f 67/201/405 2/200/426 303/200/427 300/201/405
f 2/200/426 268/216/407 301/216/408 303/200/427
f 192/220/428 260/219/429 336/219/429 340/220/430
f 313/230/431 192/220/428 340/220/430 337/230/432
f 311/228/433 310/227/434 341/227/435 333/228/433
f 310/227/434 315/234/436 334/234/437 341/227/435
f 260/219/429 275/218/438 339/218/439 336/219/429
f 309/225/440 308/222/441 328/222/441 338/225/442
f 275/218/438 309/225/440 338/225/442 339/218/439
f 314/231/443 313/230/431 337/230/432 331/231/443
f 338/225/444 328/222/445 329/239/446 332/240/447
f 335/221/448 342/229/449 333/228/450 330/241/451
f 330/241/451 333/228/450 341/227/452 334/234/453
f 332/240/447 329/239/446 331/231/454 337/230/455
f 329/239/446 330/241/451 334/234/453 331/231/454
f 328/222/445 335/221/448 330/241/451 329/239/446
f 336/219/456 332/240/447 337/230/455 340/220/457
f 339/218/458 338/225/444 332/240/447 336/219/456
f 312/229/390 311/228/433 333/228/433 342/229/391
f 308/222/441 307/221/389 335/221/392 328/222/441
f 315/234/436 314/231/443 331/231/443 334/234/437
