# Blender 5.1.2
# www.blender.org
mtllib Rock.mtl
o Cube
v -2.260172 -0.970568 -0.002886
v -1.685095 -0.842711 0.899796
v -1.832583 -0.777958 0.864783
v -1.874939 -0.544717 0.820660
v -2.028934 0.880995 0.471266
v -2.173533 0.989343 0.329387
v -2.087372 1.005776 0.085009
v -1.824484 1.089405 -0.163733
v -1.873802 0.900408 -0.381162
v -1.696316 0.892116 -0.561372
v -1.549384 0.815441 -0.756126
v -1.908323 -0.296268 -0.932012
v 0.598713 -0.948550 -0.955735
v 0.493263 -0.960900 -0.949823
v 0.362289 -0.881787 -0.995719
v 0.210203 -0.773627 -1.063999
v -0.829408 0.953928 -1.055133
v -0.316428 1.085276 -1.129836
v -0.139743 1.099438 -1.150748
v 1.217949 0.931502 -0.996215
v 1.615257 0.343374 -0.824662
v 1.669703 0.203635 -0.818192
v 1.740268 0.009309 -0.876002
v 1.731912 -0.251081 -0.846523
v 2.191052 -1.096511 0.166133
v 2.328258 -1.164129 0.000001
v 2.380428 -1.190214 -0.077496
v 2.364308 -1.176709 -0.175918
v 2.192842 -1.099032 -0.372391
v 2.252198 -0.971034 -0.449373
v 1.758295 -1.072037 -0.591436
v 1.966470 0.892901 -0.532361
v 1.666085 0.763149 0.664432
v 1.504971 0.846100 0.753456
v 1.653125 0.644660 0.827217
v 1.950916 0.068121 0.980079
v 1.989338 -0.120432 0.994086
v 1.966917 -0.184775 0.986548
v -1.208377 -0.996219 1.093440
v -0.421552 -1.112693 1.101498
v -0.282791 -1.095913 1.095914
v -0.010588 1.185190 1.193637
v -0.166145 1.193222 1.200594
v -2.290721 -0.393432 0.539219
v -2.561420 -0.598621 0.408221
v -2.268503 -0.621899 0.606311
v -2.437549 -0.132117 0.385768
v -1.894327 -0.888338 0.476001
v -2.534342 -0.618501 0.403867
v -2.403613 0.152215 0.341916
v -1.957219 0.690314 0.534464
v -2.705038 -0.601108 0.266663
v -2.735878 -0.548215 0.285958
v -2.553618 0.060467 0.286879
v -2.476226 0.632351 0.262049
v -2.317667 0.804650 0.314249
v -2.721811 -0.333530 0.274362
v -2.569802 0.347623 0.241120
v -2.691030 -0.694588 0.089076
v -2.771495 -0.570170 0.206297
v -2.796887 -0.414751 0.203300
v -2.792417 -0.212253 0.198606
v -2.687071 0.182720 0.191983
v -2.597653 0.404497 0.192552
v -2.448519 0.696504 0.244673
v -2.251731 0.913641 0.257911
v -2.636923 -0.770371 0.000131
v -2.733818 -0.619994 0.090076
v -2.263534 0.846020 0.089372
v -2.677358 -0.694048 -0.000000
v -2.714814 -0.518973 -0.019651
v -2.702352 -0.001644 0.094731
v -2.520688 0.351820 0.002114
v -2.609881 -0.761645 -0.089181
v -2.608950 -0.684533 -0.154612
v -2.383070 0.646232 0.013708
v -2.106956 0.876303 -0.131528
v -2.641223 -0.414530 -0.163152
v -2.512711 -0.255415 -0.314879
v -2.562012 -0.592527 -0.267234
v -2.225903 0.581200 -0.247890
v -2.206764 0.738234 -0.154342
v -2.052293 -0.957319 -0.135724
v -2.533001 -0.686723 -0.233031
v -2.453098 -0.632252 -0.337711
v -2.039083 -0.644548 -0.480729
v -2.483186 -0.568595 -0.384083
v -2.381227 -0.559719 -0.453513
v -2.370822 -0.499748 -0.517178
v -2.341756 -0.425791 -0.558603
v -2.102432 0.003619 -0.695688
v -2.239306 -0.467281 -0.617829
v -2.242636 -0.340367 -0.660935
v -2.225667 -0.425516 -0.673029
v -2.072216 -0.334669 -0.809150
v -2.051538 -0.399683 -0.772134
v -2.021728 -0.356155 -0.835093
v -2.053968 -0.180997 -0.806621
v -1.793041 -0.493729 -0.727125
v -1.751500 -0.299509 -0.996491
v -1.697300 -0.232494 -1.060340
v -1.542522 -0.243287 -1.121556
v -1.225325 -0.404627 -1.004218
v -1.436721 -0.193077 -1.192965
v -1.255463 0.896715 -0.884591
v -0.741426 -0.350967 -1.219810
v -0.753519 -0.306414 -1.265479
v -1.067509 -0.175025 -1.311644
v -1.320837 -0.119546 -1.243303
v -1.092981 -0.135020 -1.330307
v -0.970670 0.094319 -1.343326
v -0.690705 -0.461136 -1.092402
v -0.896778 -0.255421 -1.279118
v -0.928490 -0.187626 -1.325139
v -0.805855 0.332753 -1.345960
v -0.790172 -0.236458 -1.308154
v -0.932189 0.045532 -1.350641
v -0.794221 0.209668 -1.347480
v -0.770881 0.518908 -1.305213
v -0.663645 0.672265 -1.279749
v -0.616405 -0.370347 -1.235541
v -0.639169 -0.310053 -1.279208
v -0.666023 0.522093 -1.329747
v -0.485818 -0.426701 -1.211434
v -0.501940 -0.359525 -1.254773
v -0.549286 0.652360 -1.309893
v -0.516062 0.835172 -1.246051
v -0.378145 -0.410986 -1.230658
v -0.357705 0.429850 -1.311007
v -0.385409 0.756939 -1.284687
v -0.327337 0.970650 -1.212367
v -0.229580 -0.477149 -1.200026
v -0.408235 0.834599 -1.266209
v -0.077475 -0.186023 -1.191199
v 0.256326 -0.771093 -1.069356
v -0.068647 0.672341 -1.269036
v 0.332038 -0.835419 -1.034479
v 0.207824 -0.414960 -1.112442
v 0.356277 -0.780933 -1.052712
v 0.265974 0.448958 -1.218785
v 0.455837 0.576453 -1.196674
v 0.590991 0.732173 -1.166538
v 0.476170 -0.872962 -1.005746
v 0.761508 -0.617760 -0.995225
v 0.922193 0.846513 -1.085346
v 1.269021 0.606488 -1.042180
v 1.238729 0.806762 -1.022491
v 1.289408 0.364120 -1.020749
v 1.339418 0.428044 -1.012957
v 1.421040 0.300821 -0.974241
v 1.432450 -0.103223 -0.911772
v 1.558317 0.175817 -0.911291
v 1.484454 0.670815 -0.905630
v 1.531673 0.110336 -0.932528
v 1.805291 0.277541 -0.719859
v 1.895988 0.652604 -0.669857
v 1.940746 -0.094277 -0.819412
v 2.389297 -0.417127 -0.618117
v 2.265583 -0.195828 -0.706735
v 1.939342 0.130797 -0.703494
v 2.198454 0.586851 -0.524648
v 2.348747 0.368289 -0.477849
v 1.898739 0.875097 -0.638019
v 1.967790 0.869771 -0.597804
v 2.036495 -0.879537 -0.603094
v 2.378484 0.074553 -0.536383
v 2.136206 0.732398 -0.527952
v 2.331623 -0.614558 -0.590311
v 2.623365 -0.274685 -0.541058
v 2.656016 -0.086143 -0.462543
v 2.405738 -0.766681 -0.491841
v 2.664066 -0.690507 -0.382342
v 2.658463 -0.461951 -0.472760
v 2.712622 -0.285161 -0.479171
v 2.453481 0.302930 -0.433198
v 2.279896 0.562905 -0.477872
v 2.323844 0.495763 -0.414927
v 2.452452 -0.997155 -0.311329
v 2.631655 -0.845761 -0.306802
v 2.737630 -0.508728 -0.398880
v 2.736686 -0.429309 -0.220359
v 2.653047 -0.083198 -0.359263
v 2.721251 -0.679001 -0.327143
v 2.738692 -0.588780 -0.167958
v 2.468444 0.184926 -0.242335
v 2.669746 -0.841595 -0.259326
v 2.706808 -0.747279 -0.094787
v 2.481301 -1.114727 -0.152380
v 2.547402 -1.037738 -0.194863
v 2.638432 -0.907802 -0.102669
v 2.075393 0.694569 -0.105999
v 2.479734 -1.113789 -0.076730
v 2.568386 -0.993430 0.025245
v 2.667735 -0.352403 0.046521
v 2.491852 -1.041322 0.049921
v 2.636577 -0.807721 0.154732
v 2.699440 -0.554440 0.065413
v 2.575876 -0.195564 0.092589
v 2.567550 -0.856156 0.198167
v 2.578168 -0.756855 0.246672
v 2.450468 -0.623516 0.409417
v 2.120198 0.336165 0.206421
v 2.471674 -0.734441 0.345380
v 2.380853 -0.629435 0.458150
v 2.377133 -0.549306 0.498473
v 1.871619 0.687301 0.337280
v 2.018214 -0.615779 0.581333
v 2.280633 -0.541907 0.557791
v 1.981859 0.378309 0.617307
v 2.229707 -0.469815 0.631986
v 2.267275 -0.419915 0.603259
v 2.206687 -0.398120 0.686758
v 2.196930 -0.257656 0.621496
v 2.106537 -0.204872 0.802921
v 2.044165 0.081718 0.873743
v 2.109544 0.168557 0.692818
v 2.069350 -0.297620 0.839313
v 1.742484 0.654339 0.700414
v 1.579900 -0.192881 1.112817
v 1.619192 -0.232098 1.066576
v 1.444039 0.707749 0.964683
v 1.298440 0.695660 1.077307
v 1.123708 0.661229 1.204527
v 1.066787 -0.376442 1.117405
v 1.214156 -0.253696 1.189732
v 0.970504 -0.137362 1.283219
v 0.699811 -0.545796 1.121749
v 0.887133 -0.350788 1.222301
v 0.860392 0.690743 1.304716
v 0.760483 0.784716 1.289008
v 0.606891 -0.432319 1.269710
v 0.373843 -0.011417 1.474355
v 0.174681 -0.290501 1.430016
v 0.373277 0.958834 1.299032
v 0.218355 -0.539060 1.347995
v 0.321504 0.753680 1.446195
v 0.135795 0.305225 1.533628
v 0.153322 0.656684 1.501180
v 0.152636 0.769053 1.474844
v 0.144054 0.972571 1.347624
v 0.008852 1.063990 1.305238
v -0.303518 -0.579601 1.463060
v -0.147961 -0.303063 1.505321
v 0.026129 -0.049308 1.545240
v 0.009039 0.072367 1.576948
v 0.020099 0.547996 1.506176
v -0.007408 0.942572 1.373776
v -0.134608 -0.726517 1.336632
v -0.144218 -0.153009 1.548233
v -0.132577 0.005798 1.544310
v -0.008749 0.295366 1.546587
v -0.273636 0.695938 1.387285
v -0.149670 1.111728 1.250858
v -0.157277 -0.998600 1.141838
v -0.426588 -0.669879 1.447197
v -0.295254 -0.374604 1.515104
v -0.289628 -0.229547 1.515164
v -0.447004 -1.029842 1.196561
v -0.536120 -0.775874 1.399352
v -0.440261 -0.587460 1.468861
v -0.593438 -0.968214 1.277664
v -0.583042 -0.875749 1.341158
v -0.589005 -0.690565 1.415432
v -0.442947 -0.461403 1.474926
v -0.591268 -0.302556 1.414747
v -0.520332 0.599888 1.317397
v -0.655182 -1.014112 1.226123
v -0.748317 -0.951700 1.308525
v -0.716190 -0.860635 1.341316
v -0.952668 -0.981736 1.204105
v -0.804201 0.711531 1.167780
v -0.667785 0.901308 1.176729
v -0.948822 -0.911371 1.249178
v -1.117339 -0.957077 1.169804
v -1.120180 -0.822192 1.202043
v -0.911035 0.077650 1.181573
v -1.436635 -0.870278 1.051059
v -0.783398 -0.172420 1.308641
v -1.164744 -0.298071 1.132381
v -1.720618 -0.722538 0.931068
v 0.440754 -1.049888 -0.828505
v 0.641081 -1.015008 -0.916098
v 1.170468 -0.924466 -0.845922
v 0.615587 -1.052893 -0.859188
v 0.840954 -1.041641 -0.850467
v 1.156832 -1.026447 -0.799644
v 1.068819 -1.054902 -0.781296
v 1.537697 -1.034465 -0.690328
v 1.546878 -1.086335 -0.643570
v 1.888542 -1.109608 -0.501886
v 1.770509 -1.133431 -0.490543
v 1.363737 -1.177694 -0.443019
v 2.024762 -1.140322 -0.409049
v -0.002544 -1.428546 -0.131909
v -0.270253 -1.295622 -0.272667
v 0.948447 -1.409996 -0.012993
v -0.150211 -1.457428 -0.084170
v 1.670442 -1.299991 -0.139687
v 2.039866 -1.277512 -0.073698
v 2.229442 -1.240920 -0.076797
v -1.838484 -1.133264 0.022980
v -1.452934 -1.223381 -0.008207
v 1.611513 -1.388306 0.077043
v 1.866523 -1.329176 0.000845
v 2.102410 -1.265097 0.005937
v -1.546599 -1.252675 0.083140
v -0.145619 -1.527498 0.052128
v 1.452078 -1.404493 0.073183
v 1.927989 -1.304127 0.052452
v -1.661977 -1.211248 0.113464
v -1.506589 -1.282121 0.137046
v -0.139383 -1.541170 0.138549
v 0.036997 -1.555633 0.165596
v 0.197598 -1.541720 0.144135
v 1.039361 -1.470579 0.145774
v 1.311065 -1.445428 0.146193
v 1.608584 -1.365444 0.131644
v 0.316716 -1.561951 0.224118
v 0.613704 -1.545835 0.246826
v 1.056888 -1.482545 0.219117
v 0.294757 -1.543863 0.294666
v 0.483156 -1.567374 0.311389
v 0.599575 -1.559522 0.299788
v 0.789298 -1.515021 0.284017
v -1.857374 -0.977491 0.335641
v 1.348248 -1.383774 0.222858
v 1.858173 -1.063041 0.332860
v 0.362106 -1.506120 0.415782
v 0.430528 -1.479229 0.463782
v 1.736002 -1.280396 0.179229
v 0.262640 -1.429358 0.569802
v 0.278287 -1.376639 0.638462
v 0.120315 -1.355624 0.700175
v 0.988676 -1.212072 0.514724
v -0.131909 -1.245759 0.886194
v -0.262782 -1.193499 0.966934
v 0.128367 -1.321956 0.750243
v 0.630539 -1.169941 0.684977
v -0.079051 -1.195685 0.946365
v -0.284311 -1.157980 1.041458
v 1.123103 1.047078 -0.971819
v 0.806635 1.181370 -0.970034
v 0.401495 1.215852 -1.023676
v 0.065128 1.232227 -1.056869
v -0.459574 1.164873 -1.009075
v -0.947797 1.055049 -0.909889
v -0.075100 1.250621 -1.028558
v 1.738897 1.022341 -0.672721
v 0.328559 1.353873 -0.935679
v 0.152289 1.337626 -0.969733
v -0.210320 1.339231 -0.880020
v -0.590744 1.269166 -0.832473
v -0.935345 1.209792 -0.735170
v -1.289848 1.055995 -0.706048
v 1.273882 1.081540 -0.902765
v 0.321674 1.424557 -0.855887
v 0.114462 1.385399 -0.898777
v 1.595316 1.098311 -0.711762
v 1.441647 1.172211 -0.726200
v 1.817103 0.993325 -0.605162
v 1.535965 1.173925 -0.538686
v 1.057233 1.359195 -0.637967
v 0.615311 1.476127 -0.665807
v 0.453015 1.459350 -0.754633
v -0.797382 1.262003 -0.722216
v 1.233102 1.301706 -0.610267
v 0.443476 1.487032 -0.658024
v -1.043231 1.221872 -0.642288
v -1.322220 1.162292 -0.531707
v 1.755338 1.053348 -0.365017
v 0.921864 1.426164 -0.563917
v 0.613724 1.512011 -0.595615
v -0.129805 1.379074 -0.797673
v -0.941907 1.243006 -0.208702
v -1.573674 1.125584 -0.373997
v 0.925241 1.447668 -0.258181
v -1.443399 1.165386 -0.397912
v 1.224633 1.335674 -0.268021
v -1.676839 1.147388 -0.211297
v 1.459971 1.221490 -0.215696
v 0.910511 1.431428 0.028284
v 0.569693 1.547401 -0.032155
v -1.009085 1.258365 -0.018084
v -1.725812 1.162282 -0.039752
v -1.881635 1.145671 0.078044
v 0.719320 1.454422 0.280137
v -1.727712 1.209724 0.262542
v 1.594943 0.927299 0.480813
v 1.396054 1.082676 0.468761
v -1.868530 1.184158 0.386031
v 0.622423 1.410214 0.532473
v -1.723614 1.228231 0.401471
v 0.873552 1.301876 0.576451
v 0.391443 1.445761 0.622435
v -0.444289 1.474255 0.549021
v -1.539263 1.270181 0.482000
v -1.651350 1.250484 0.478491
v -1.982554 1.086360 0.401568
v -1.297889 1.323993 0.550093
v -1.657668 1.233170 0.494858
v 0.014814 1.511304 0.672372
v -0.185900 1.523221 0.689404
v -0.958489 1.392406 0.722443
v -1.277697 1.321663 0.630800
v 1.107085 1.179607 0.615081
v -0.166725 1.487391 0.792679
v -0.320521 1.499134 0.776975
v -0.728343 1.434703 0.748299
v -1.126160 1.332211 0.706689
v 0.077880 1.404913 0.867355
v -0.358486 1.471918 0.872106
v -0.484762 1.466071 0.863687
v -0.816131 1.383317 0.811263
v -1.229516 1.218406 0.745837
v -1.538149 1.102910 0.653305
v 1.267109 0.999892 0.779575
v -0.782154 1.309102 0.892899
v 0.063753 1.288454 1.054299
v -0.308588 1.388194 1.000032
v -0.170729 1.305800 1.085879
v -0.355650 1.350719 1.023289
vn -0.4919 0.1094 0.8638
vn -0.3989 -0.8636 0.3085
vn -0.5679 -0.3612 0.7396
vn -0.4879 0.2216 0.8443
vn -0.3950 -0.8338 0.3857
vn -0.5789 -0.5553 0.5971
vn -0.5100 0.2172 0.8323
vn -0.4613 0.1692 0.8710
vn -0.6799 0.4504 0.5787
vn -0.3987 -0.8241 0.4024
vn -0.8897 -0.1370 0.4355
vn -0.7051 0.0320 0.7084
vn -0.7465 0.5741 -0.3365
vn -0.4048 -0.7871 0.4655
vn -0.6552 0.7159 -0.2413
vn -0.8836 -0.2345 -0.4054
vn -0.7991 0.2699 -0.5372
vn -0.6298 -0.4981 -0.5960
vn -0.8591 -0.0875 -0.5042
vn -0.6552 -0.4279 -0.6226
vn -0.5958 -0.4298 -0.6784
vn -0.7917 0.0597 -0.6080
vn -0.7981 0.0573 -0.5998
vn -0.5551 -0.2296 -0.7994
vn -0.7014 -0.0387 -0.7117
vn -0.6553 0.0902 -0.7500
vn -0.3521 -0.5452 -0.7608
vn -0.6104 0.0854 -0.7875
vn -0.5849 0.7184 -0.3766
vn -0.3157 -0.5964 -0.7380
vn -0.4429 -0.8415 0.3093
vn -0.1661 -0.7876 -0.5935
vn -0.1758 -0.7542 -0.6327
vn -0.2929 -0.1811 -0.9388
vn -0.1814 -0.7785 -0.6009
vn -0.1544 0.0263 -0.9877
vn -0.0797 0.0861 -0.9931
vn -0.1956 -0.7323 -0.6523
vn 0.0814 0.0750 -0.9939
vn -0.2784 0.5785 -0.7667
vn 0.2064 -0.0783 -0.9753
vn 0.1476 -0.0484 -0.9879
vn 0.1477 0.0629 -0.9870
vn 0.1810 -0.0999 -0.9784
vn 0.1995 0.1132 -0.9733
vn 0.2851 -0.1069 -0.9525
vn 0.4875 0.1403 -0.8618
vn 0.5735 0.1865 -0.7977
vn 0.5686 0.0238 -0.8223
vn 0.4976 0.1168 -0.8595
vn -0.0321 -0.5408 -0.8406
vn 0.4418 0.3097 -0.8420
vn 0.4353 0.0147 -0.9001
vn 0.3951 0.0756 -0.9155
vn 0.3666 0.2174 -0.9046
vn 0.4363 -0.2492 -0.8646
vn 0.4491 -0.3191 -0.8345
vn 0.5431 -0.1960 -0.8165
vn 0.3903 0.2696 -0.8803
vn 0.8873 0.4610 0.0124
vn 0.9945 0.0975 -0.0381
vn 0.8128 0.5219 0.2589
vn 0.9925 -0.1141 -0.0441
vn 0.9999 0.0125 -0.0003
vn 0.6634 -0.5722 -0.4821
vn 0.9487 -0.3145 -0.0334
vn 0.9807 -0.1957 0.0035
vn 0.9430 0.2919 0.1595
vn 0.8445 0.4678 0.2606
vn 0.8376 -0.5428 -0.0620
vn 0.9195 -0.3926 0.0179
vn 0.8037 -0.5935 0.0428
vn 0.5756 -0.7323 0.3639
vn 0.9054 -0.3935 0.1595
vn 0.9856 0.0638 0.1564
vn 0.9649 0.1701 0.2003
vn 0.7657 0.4744 0.4344
vn 0.3716 -0.6681 0.6447
vn 0.5680 -0.6432 0.5134
vn 0.6853 -0.5688 0.4548
vn 0.8154 0.4349 0.3820
vn 0.8095 0.0061 0.5871
vn 0.3290 -0.6113 0.7197
vn 0.5728 -0.4084 0.7107
vn 0.3080 -0.6030 0.7359
vn 0.6123 -0.3042 0.7297
vn 0.8327 0.5043 0.2286
vn 0.8194 0.3004 0.4882
vn 0.8953 0.2374 0.3770
vn 0.7637 0.5724 0.2986
vn 0.2135 -0.1167 -0.9699
vn 0.6212 0.7427 -0.2500
vn 0.7246 0.1967 0.6605
vn 0.4086 -0.6689 -0.6210
vn 0.3327 -0.5282 -0.7812
vn 0.5546 0.6137 0.5619
vn 0.2589 -0.6169 0.7432
vn 0.3076 -0.6576 0.6877
vn 0.1921 -0.3380 0.9213
vn 0.2434 -0.3005 0.9222
vn 0.2406 -0.3174 0.9173
vn 0.3128 0.7386 0.5971
vn 0.2177 -0.2174 0.9515
vn 0.2705 0.0751 0.9598
vn 0.0546 0.4853 0.8727
vn 0.2325 -0.4669 0.8532
vn -0.2422 0.3118 0.9188
vn 0.1840 -0.2488 0.9509
vn 0.0677 -0.0030 0.9977
vn -0.2424 0.0417 0.9693
vn 0.2111 -0.5806 0.7864
vn 0.0450 -0.0471 0.9979
vn -0.3184 0.0120 0.9479
vn -0.3407 0.1330 0.9307
vn -0.3808 0.2315 0.8952
vn -0.1302 -0.8556 0.5009
vn -0.3354 -0.1533 0.9295
vn -0.2436 -0.7140 0.6564
vn 0.2552 -0.6196 0.7423
vn -0.4486 0.2159 0.8673
vn -0.1364 -0.8916 0.4319
vn 0.2855 -0.5866 0.7579
vn 0.1042 -0.9096 -0.4021
vn -0.1312 -0.7952 -0.5920
vn 0.1030 -0.9306 -0.3512
vn 0.2557 -0.9537 0.1584
vn 0.0782 -0.9157 -0.3942
vn 0.0781 -0.9287 -0.3626
vn 0.2439 -0.8101 0.5332
vn 0.2672 -0.7434 0.6132
vn 0.2848 -0.6549 0.7000
vn -0.1472 -0.9181 0.3680
vn 0.2289 -0.7602 0.6081
vn 0.2439 -0.7284 0.6403
vn 0.2607 -0.6507 0.7132
vn 0.0385 -0.8977 0.4390
vn 0.3322 -0.5942 -0.7325
vn -0.4067 -0.7847 0.4679
vn -0.2799 -0.8079 -0.5186
vn -0.0627 0.6662 -0.7431
vn -0.2166 0.7617 -0.6107
vn -0.3000 0.7246 -0.6204
vn -0.3583 0.7114 -0.6046
vn -0.4517 0.6208 -0.6408
vn 0.4432 0.4347 -0.7840
vn 0.2211 0.7394 -0.6359
vn -0.1464 0.7852 -0.6017
vn -0.1513 0.9397 -0.3067
vn -0.3733 0.7597 -0.5324
vn -0.1265 0.9656 -0.2270
vn -0.2818 0.8535 -0.4384
vn 0.3406 0.8693 -0.3583
vn -0.4732 0.6891 -0.5489
vn 0.3341 0.9169 -0.2184
vn -0.3127 0.8999 -0.3040
vn -0.5022 0.6862 -0.5262
vn 0.3593 0.9295 -0.0834
vn -0.4123 0.8899 -0.1950
vn 0.3103 0.9481 0.0697
vn -0.1267 0.9798 -0.1546
vn -0.2182 0.9639 -0.1526
vn -0.5254 0.8468 -0.0835
vn 0.3368 0.8969 0.2865
vn -0.2097 0.9773 -0.0292
vn -0.4405 0.5016 0.7446
vn -0.1683 0.9852 -0.0339
vn -0.2395 0.9669 0.0878
vn -0.2784 0.9468 0.1618
vn -0.4671 0.3769 0.7998
vn -0.1580 0.9870 0.0287
vn 0.4681 0.7862 0.4036
vn -0.2784 0.8968 0.3438
vn 0.5491 0.7339 0.3998
vn -0.2746 0.6518 0.7069
vn 0.1398 0.8526 0.5035
vn -0.2945 0.7429 0.6011
vn -0.1116 0.6214 0.7755
vn 0.4630 0.3066 -0.8317
vn 0.2955 0.4233 -0.8565
vn -0.0691 0.6448 -0.7612
vn -0.2893 0.6588 -0.6945
vn -0.5418 0.7813 -0.3099
vn -0.5098 0.0009 0.8603
vn -0.4716 0.1125 0.8746
vn -0.4322 -0.7103 0.5556
vn -0.5537 0.0834 0.8285
vn -0.3972 -0.8184 0.4153
vn -0.5562 0.0811 0.8271
vn -0.4707 0.0902 0.8777
vn -0.5171 0.3391 0.7859
vn -0.4065 0.1214 0.9056
vn -0.7007 0.6128 0.3654
vn -0.7766 0.5874 0.2275
vn -0.6251 -0.7099 0.3244
vn -0.7317 0.0845 0.6764
vn -0.6979 0.2357 0.6763
vn -0.5089 0.1074 0.8541
vn -0.6671 0.2672 0.6954
vn -0.9080 0.3184 -0.2723
vn -0.7169 0.6629 -0.2158
vn -0.9364 0.0125 -0.3506
vn -0.8346 0.3095 -0.4557
vn -0.8363 0.3383 -0.4315
vn -0.8658 -0.4957 -0.0682
vn -0.4220 -0.8006 0.4254
vn -0.8752 -0.4639 -0.1371
vn -0.9067 0.0668 -0.4163
vn -0.8786 0.1525 -0.4525
vn -0.8393 0.1932 -0.5083
vn -0.8606 -0.1548 -0.4852
vn -0.7516 0.3728 -0.5442
vn -0.7321 0.4123 -0.5423
vn -0.2926 -0.7384 -0.6076
vn -0.2300 -0.7166 -0.6585
vn -0.6364 0.5495 -0.5413
vn -0.5674 -0.6430 -0.5145
vn -0.2750 -0.7288 -0.6271
vn -0.3853 -0.6554 -0.6496
vn -0.7439 0.3015 -0.5964
vn -0.3962 -0.6351 -0.6630
vn -0.7398 -0.0832 -0.6676
vn -0.7652 0.1333 -0.6299
vn -0.7370 0.2364 -0.6332
vn -0.5708 -0.5808 -0.5805
vn -0.6556 -0.0235 -0.7547
vn -0.7057 0.2196 -0.6737
vn -0.2409 -0.7481 -0.6183
vn -0.5550 -0.5378 -0.6346
vn -0.1819 -0.7841 -0.5934
vn -0.5313 -0.2851 -0.7978
vn -0.4954 0.2001 0.8453
vn -0.4889 0.3773 0.7865
vn -0.3512 -0.4812 -0.8032
vn -0.3582 -0.4264 -0.8306
vn -0.1832 -0.7275 -0.6612
vn -0.1682 -0.7996 -0.5765
vn -0.2112 -0.6245 -0.7520
vn -0.3279 -0.5628 -0.7588
vn -0.3458 0.1317 -0.9290
vn -0.1822 -0.6974 -0.6932
vn -0.1279 -0.4850 -0.8651
vn -0.0036 -0.1088 -0.9941
vn -0.1116 -0.5933 -0.7972
vn -0.1225 -0.5629 -0.8174
vn -0.0298 0.0095 -0.9995
vn 0.0839 -0.1070 -0.9907
vn -0.1163 -0.5609 -0.8197
vn 0.0736 0.0193 -0.9971
vn -0.2255 0.3110 -0.9233
vn -0.0763 -0.6036 -0.7936
vn -0.5372 0.3445 -0.7699
vn -0.0866 -0.5547 -0.8275
vn 0.0833 0.0767 -0.9936
vn 0.0705 0.0333 -0.9970
vn -0.1805 0.3534 -0.9179
vn -0.1908 0.3128 -0.9305
vn -0.2594 0.5695 -0.7800
vn -0.0677 -0.5523 -0.8309
vn -0.1623 0.4450 -0.8807
vn -0.0732 0.3406 -0.9373
vn -0.1799 0.1773 -0.9676
vn 0.1751 -0.0617 -0.9826
vn 0.2012 -0.1550 -0.9672
vn -0.1414 0.5873 -0.7969
vn 0.1379 0.0070 -0.9904
vn 0.1993 -0.0221 -0.9797
vn 0.0556 -0.3390 -0.9391
vn -0.0169 -0.6477 -0.7617
vn 0.1346 0.3260 -0.9357
vn 0.1855 0.0291 -0.9822
vn 0.1887 -0.0707 -0.9795
vn 0.2085 0.1269 -0.9698
vn 0.2354 -0.0659 -0.9697
vn 0.4943 0.1588 -0.8547
vn 0.4666 0.2561 -0.8466
vn 0.5201 0.0657 -0.8516
vn 0.5863 0.1330 -0.7991
vn 0.1352 -0.1579 -0.9782
vn -0.3402 -0.4897 -0.8028
vn 0.5830 0.2512 -0.7726
vn 0.2068 -0.1166 -0.9714
vn 0.0152 -0.5344 -0.8451
vn 0.4389 0.4136 -0.7977
vn 0.4482 0.4005 -0.7992
vn 0.4043 0.3607 -0.8405
vn 0.3688 0.4274 -0.8254
vn 0.5050 0.1911 -0.8417
vn 0.4509 0.1210 -0.8844
vn 0.3700 -0.3710 -0.8517
vn 0.3888 -0.1469 -0.9095
vn 0.6710 0.7032 -0.2350
vn 0.4244 0.3491 -0.8354
vn 0.3720 0.2398 -0.8967
vn 0.5077 0.1981 -0.8385
vn 0.5325 0.2091 -0.8202
vn 0.4532 0.2747 -0.8480
vn 0.5301 0.1874 -0.8270
vn 0.3814 -0.4539 -0.8053
vn 0.4483 -0.3215 -0.8341
vn 0.4254 -0.2386 -0.8730
vn 0.4946 0.2177 -0.8414
vn 0.5974 -0.2110 -0.7737
vn 0.5729 0.4500 -0.6850
vn 0.9024 0.3192 -0.2895
vn 0.5531 -0.2947 -0.7793
vn 0.9621 0.2720 0.0199
vn 0.6881 -0.3369 -0.6426
vn 0.9658 0.2542 0.0518
vn 0.5135 -0.5891 -0.6239
vn 0.7932 0.5328 0.2950
vn 0.8651 0.4318 0.2551
vn 0.6693 -0.3827 0.6369
vn 0.8760 -0.4473 0.1802
vn 0.9770 -0.1130 0.1809
vn 0.9600 -0.1563 0.2323
vn 0.8390 0.4710 0.2724
vn 0.5566 -0.3527 0.7522
vn 0.2908 -0.5721 0.7669
vn 0.5598 -0.3314 0.7595
vn 0.4627 -0.3813 0.8003
vn 0.5838 -0.2266 0.7796
vn 0.7608 -0.2217 0.6099
vn 0.8165 0.3632 0.4489
vn 0.2393 -0.6091 0.7561
vn 0.8086 0.2932 0.5102
vn 0.7611 0.5632 0.3218
vn 0.5370 -0.3964 0.7446
vn 0.8631 0.0641 0.5009
vn 0.6292 0.6037 0.4895
vn 0.5193 0.1635 -0.8388
vn 0.4600 0.5180 -0.7212
vn 0.5987 0.6241 0.5020
vn 0.4781 -0.7019 -0.5281
vn 0.4455 -0.6681 -0.5960
vn 0.3988 -0.6013 -0.6923
vn 0.2434 -0.6925 0.6792
vn 0.3852 0.1317 0.9134
vn 0.3554 0.5089 0.7841
vn 0.2392 -0.2525 0.9376
vn 0.2756 -0.7117 0.6462
vn 0.3087 -0.6512 0.6933
vn 0.2758 0.4364 0.8564
vn 0.2618 0.0791 0.9619
vn 0.2147 -0.3009 0.9292
vn 0.2233 -0.3404 0.9134
vn 0.1829 0.2254 0.9570
vn 0.1963 0.6362 0.7461
vn 0.2273 -0.2708 0.9354
vn 0.2245 -0.4744 0.8512
vn 0.0782 0.1488 0.9858
vn 0.2288 -0.2686 0.9357
vn 0.2287 -0.2729 0.9344
vn 0.0789 0.1407 0.9869
vn -0.0392 0.0938 0.9948
vn 0.0410 0.5309 0.8465
vn -0.2881 0.1832 0.9399
vn 0.0026 0.0245 0.9997
vn -0.0972 -0.2637 0.9597
vn -0.2714 0.1086 0.9563
vn -0.2385 0.2750 0.9314
vn -0.1420 0.5009 0.8538
vn -0.0747 -0.2725 0.9593
vn -0.0510 0.6721 0.7387
vn 0.0551 -0.2453 0.9679
vn -0.1212 -0.2397 0.9633
vn 0.0333 -0.7659 0.6421
vn -0.3034 0.0766 0.9498
vn 0.2015 -0.5698 0.7967
vn -0.1511 -0.2728 0.9501
vn -0.3524 0.2487 0.9022
vn 0.0441 -0.7717 0.6344
vn -0.0539 -0.4837 0.8736
vn -0.3344 -0.1551 0.9296
vn -0.3173 -0.2202 0.9224
vn -0.3367 -0.4948 0.8012
vn -0.4648 0.2009 0.8623
vn -0.3923 -0.2216 0.8928
vn -0.4768 0.6983 0.5338
vn -0.4203 -0.0734 0.9044
vn 0.3070 -0.2156 0.9270
vn -0.4128 0.0718 0.9080
vn 0.2514 -0.6758 0.6929
vn 0.2562 0.1234 0.9587
vn 0.4886 0.6586 0.5723
vn 0.0653 0.5334 0.8434
vn 0.0375 -0.7483 0.6622
vn -0.1295 -0.8814 0.4543
vn 0.0628 -0.8435 -0.5334
vn 0.1335 -0.7947 -0.5921
vn 0.2411 -0.4276 -0.8712
vn 0.1249 -0.7810 -0.6119
vn 0.2005 -0.6362 -0.7451
vn 0.0479 -0.9248 -0.3775
vn 0.0577 -0.9273 -0.3697
vn -0.1771 -0.7997 -0.5737
vn 0.0501 -0.9077 -0.4166
vn 0.1237 -0.9165 -0.3805
vn 0.1632 -0.9105 -0.3798
vn 0.1115 -0.9305 -0.3489
vn 0.0625 -0.9021 -0.4269
vn 0.1710 -0.9167 -0.3611
vn -0.2307 -0.7912 -0.5663
vn 0.2629 -0.9632 -0.0563
vn 0.0258 -0.8887 -0.4577
vn 0.0710 -0.9223 -0.3799
vn 0.2649 -0.9530 0.1470
vn -0.3790 -0.9011 -0.2109
vn -0.0576 -0.9867 -0.1519
vn 0.2573 -0.9653 -0.0442
vn 0.0837 -0.9176 0.3887
vn 0.0419 -0.9520 -0.3033
vn 0.0794 -0.9319 -0.3540
vn 0.0909 -0.9792 -0.1815
vn 0.1272 -0.9737 -0.1893
vn 0.2679 -0.8101 0.5215
vn -0.0695 -0.9713 0.2274
vn -0.1391 -0.9688 0.2051
vn -0.0089 -0.8669 0.4984
vn 0.1093 -0.8436 0.5257
vn 0.2422 -0.7377 0.6302
vn 0.2594 -0.6862 0.6796
vn 0.2750 -0.6651 0.6942
vn 0.0449 -0.8323 0.5525
vn 0.0777 -0.7988 0.5965
vn 0.0586 -0.7920 0.6077
vn -0.1264 -0.9092 0.3968
vn 0.0111 -0.5070 -0.8619
vn 0.1886 -0.4116 -0.8917
vn 0.2922 -0.4726 -0.8314
vn 0.3112 -0.7591 -0.5717
vn 0.3125 -0.9329 -0.1792
vn 0.3442 -0.7355 0.5836
vn 0.1095 -0.6571 0.7458
vn -0.3514 -0.9291 -0.1153
vn 0.2344 0.5628 -0.7926
vn 0.1552 0.5881 -0.7938
vn 0.2489 0.7631 -0.5965
vn -0.1994 0.7510 -0.6295
vn -0.2901 0.7141 -0.6371
vn -0.3880 0.6494 -0.6540
vn 0.3695 0.6359 -0.6776
vn 0.2442 0.7661 -0.5945
vn -0.1291 0.9591 -0.2519
vn -0.1436 0.7838 -0.6042
vn 0.2418 0.7750 -0.5839
vn -0.4734 0.6373 -0.6081
vn -0.0392 0.9595 -0.2788
vn 0.2298 0.7596 -0.6084
vn 0.2303 0.7888 -0.5698
vn 0.0488 0.9614 -0.2707
vn -0.4365 0.7299 -0.5261
vn 0.2605 0.9033 -0.3408
vn 0.2830 0.8566 -0.4315
vn 0.4896 0.8718 -0.0132
vn 0.4414 0.8969 -0.0282
vn 0.4036 0.9114 -0.0805
vn -0.1479 0.9889 -0.0136
vn 0.3475 0.9351 -0.0696
vn -0.3306 0.8849 -0.3282
vn -0.1285 0.9896 -0.0653
vn 0.5679 0.7910 0.2276
vn -0.1276 0.9843 -0.1219
vn 0.3515 0.9335 0.0710
vn -0.1281 0.9839 -0.1244
vn -0.3118 0.9065 -0.2847
vn 0.2968 0.9448 0.1391
vn -0.5599 0.8162 -0.1425
vn -0.1760 0.9764 -0.1249
vn -0.5346 0.6988 0.4752
vn -0.1679 0.9778 -0.1250
vn -0.4648 0.6392 0.6127
vn -0.1459 0.7072 0.6918
vn -0.2404 0.9667 0.0881
vn -0.1732 0.9836 -0.0493
vn -0.3898 0.5982 0.7002
vn -0.4181 0.5213 0.7439
vn 0.0395 0.9463 0.3210
vn -0.3278 0.7698 0.5476
vn -0.3921 0.5969 0.7000
vn 0.0433 0.9558 0.2907
vn -0.0615 0.9658 0.2518
vn -0.2096 0.8801 0.4260
vn -0.1605 0.9845 0.0713
vn -0.4004 0.5889 0.7020
vn 0.5850 0.7040 0.4027
vn 0.5256 0.7423 0.4157
vn -0.0776 0.7772 0.6245
vn -0.2782 0.6574 0.7002
vn 0.1362 0.8149 0.5634
vn -0.0643 0.7110 0.7003
vn 0.4511 0.3446 -0.8233
vn -0.2672 0.6281 -0.7308
vn -0.3659 0.5970 -0.7139
vn 0.6442 0.5826 -0.4956
vn -0.5058 0.1690 0.8460
vn -0.4654 -0.7402 0.4852
vn -0.6828 -0.5664 0.4614
vn -0.9519 -0.1429 -0.2712
vn -0.8131 0.4391 -0.3821
vn -0.9197 0.2401 -0.3106
vn -0.8991 -0.3119 -0.3071
vn -0.8536 -0.3745 -0.3620
vn -0.4588 -0.8601 -0.2230
vn -0.7011 0.5772 -0.4186
vn -0.3146 -0.7617 -0.5665
vn -0.6330 0.6883 -0.3543
vn -0.2514 -0.7345 -0.6303
vn -0.8249 -0.0372 -0.5641
vn -0.2345 -0.7465 -0.6227
vn -0.1662 -0.7584 -0.6302
vn -0.2136 -0.7534 -0.6220
vn -0.1782 -0.6700 -0.7207
vn -0.6063 0.7787 -0.1614
vn -0.5667 0.6812 -0.4635
vn -0.1538 -0.6700 -0.7263
vn -0.2278 0.2489 -0.9414
vn 0.0794 0.1142 -0.9903
vn 0.1809 -0.1243 -0.9756
vn -0.0071 -0.8789 -0.4770
vn 0.0936 -0.3531 -0.9309
vn 0.2177 0.2358 -0.9471
vn 0.4607 0.3287 -0.8244
vn 0.4916 -0.0103 -0.8708
vn 0.4440 -0.4950 -0.7469
vn 0.5727 0.2287 -0.7872
vn 0.6905 -0.4409 -0.5734
vn 0.4582 -0.4644 -0.7579
vn 0.8455 0.4813 0.2313
vn 0.7796 -0.6247 0.0444
vn 0.7731 -0.1817 0.6077
vn 0.2372 -0.5990 0.7648
vn 0.7337 -0.0278 0.6789
vn 0.4800 -0.7494 0.4560
vn 0.3608 -0.7211 0.5915
vn 0.5444 -0.8322 -0.1056
vn 0.2591 -0.2613 0.9298
vn 0.1986 0.5318 0.8233
vn -0.1473 0.2249 0.9632
vn 0.1947 -0.5679 0.7997
vn -0.2428 -0.1466 0.9589
vn 0.2100 -0.5640 0.7986
vn 0.0430 -0.4719 0.8806
vn -0.3268 -0.3317 0.8849
vn -0.1706 -0.2836 0.9436
vn -0.4516 -0.6358 0.6259
vn -0.4181 -0.5032 0.7563
vn -0.4489 -0.1471 0.8814
vn 0.1766 -0.6656 0.7251
vn -0.1322 -0.7793 -0.6126
vn 0.1829 -0.4811 -0.8574
vn 0.2259 -0.6299 -0.7431
vn 0.1618 -0.8342 -0.5272
vn -0.2784 -0.8774 -0.3908
vn 0.1295 -0.8690 -0.4775
vn 0.1207 -0.9249 -0.3605
vn 0.1896 -0.9819 0.0042
vn 0.0770 -0.9216 -0.3805
vn 0.0419 -0.9519 -0.3035
vn 0.2827 -0.8111 0.5121
vn 0.3162 -0.7315 0.6041
vn 0.0621 -0.9777 -0.2007
vn -0.1408 -0.9203 0.3651
vn 0.2087 -0.8841 0.4181
vn 0.2089 -0.9589 -0.1921
vn 0.0781 -0.8488 0.5229
vn 0.2721 -0.6234 0.7331
vn 0.1142 -0.8140 0.5695
vn 0.3277 -0.6117 -0.7200
vn 0.2808 -0.6093 0.7415
vn -0.2291 -0.9341 0.2737
vn -0.2223 -0.7378 -0.6374
vn 0.3483 -0.8479 0.3997
vn 0.2246 -0.6412 0.7338
vn 0.1064 0.5766 -0.8101
vn 0.0098 0.7877 -0.6160
vn -0.2011 0.9355 -0.2904
vn 0.4968 0.8440 -0.2024
vn -0.2757 0.8430 -0.4619
vn 0.4288 0.8753 -0.2237
vn -0.3733 0.7597 -0.5325
vn 0.5260 0.8470 -0.0764
vn 0.0359 0.8901 -0.4543
vn -0.3300 0.8883 -0.3195
vn -0.4426 0.8080 -0.3889
vn -0.5146 0.7015 -0.4931
vn -0.2713 0.9560 -0.1115
vn -0.3665 0.9062 0.2109
vn -0.1111 0.9908 -0.0767
vn 0.0827 0.9462 0.3129
vn -0.1700 0.9812 -0.0915
vn -0.3394 0.6234 0.7044
vn 0.1679 0.8872 0.4298
vn 0.1411 0.8440 0.5174
vn -0.1730 0.6856 -0.7071
vn 0.1136 0.7416 0.6612
vn 0.5757 0.8158 -0.0558
vt 0.410702 0.004908
vt 0.425100 0.015528
vt 0.421114 0.048887
vt 0.395840 0.005798
vt 0.424562 0.077881
vt 0.383944 0.062196
vt 0.448598 0.053857
vt 0.481906 0.075423
vt 0.461315 0.092255
vt 0.430457 0.094171
vt 0.429688 0.076644
vt 0.437721 0.093031
vt 0.618105 0.065538
vt 0.597693 0.085938
vt 0.577392 0.094070
vt 0.505080 0.088229
vt 0.583502 0.096069
vt 0.421725 0.115134
vt 0.377491 0.083293
vt 0.452777 0.101563
vt 0.436604 0.102372
vt 0.474636 0.101626
vt 0.602598 0.114194
vt 0.579857 0.120681
vt 0.384260 0.125932
vt 0.609285 0.094683
vt 0.622391 0.115747
vt 0.440196 0.126757
vt 0.421875 0.142800
vt 0.421875 0.125000
vt 0.544755 0.125783
vt 0.468307 0.160180
vt 0.500619 0.114037
vt 0.418783 0.151761
vt 0.413903 0.132812
vt 0.450729 0.144585
vt 0.429688 0.156876
vt 0.424486 0.164260
vt 0.430750 0.172205
vt 0.445973 0.195846
vt 0.437500 0.205106
vt 0.437500 0.190218
vt 0.454799 0.209659
vt 0.445312 0.211922
vt 0.476776 0.231817
vt 0.457996 0.230013
vt 0.447426 0.227043
vt 0.461712 0.247865
vt 0.625000 0.143070
vt 0.612865 0.141162
vt 0.459923 0.259273
vt 0.453125 0.235345
vt 0.381144 -0.000769
vt 0.425834 0.235814
vt 0.440004 0.288362
vt 0.468750 0.278135
vt 0.460938 0.328540
vt 0.486175 0.293745
vt 0.476563 0.312103
vt 0.476563 0.287343
vt 0.449399 0.325552
vt 0.435237 0.326549
vt 0.511619 0.315416
vt 0.505287 0.320428
vt 0.484184 0.311978
vt 0.526569 0.328428
vt 0.453125 0.335938
vt 0.445313 0.343750
vt 0.575507 0.343694
vt 0.577922 0.371486
vt 0.552866 0.355220
vt 0.623106 0.356036
vt 0.607880 0.357142
vt 0.594802 0.343017
vt 0.474401 0.370649
vt 0.445899 0.386592
vt 0.438274 0.363276
vt 0.572117 0.403747
vt 0.556862 0.393791
vt 0.590047 0.411493
vt 0.551006 0.464487
vt 0.605528 0.432897
vt 0.582398 0.459676
vt 0.559010 0.468793
vt 0.543244 0.476897
vt 0.604772 0.454608
vt 0.622223 0.491304
vt 0.595432 0.484404
vt 0.552808 0.498314
vt 0.529971 0.500835
vt 0.622706 0.535368
vt 0.591183 0.527784
vt 0.384191 0.398438
vt 0.385746 0.406250
vt 0.375000 0.406250
vt 0.541493 0.519688
vt 0.518406 0.525784
vt 0.577440 0.556968
vt 0.545606 0.560832
vt 0.510687 0.554232
vt 0.448456 0.548182
vt 0.468165 0.561976
vt 0.423892 0.551296
vt 0.446415 0.570312
vt 0.422474 0.581838
vt 0.466494 0.569975
vt 0.538846 0.572649
vt 0.489489 0.570419
vt 0.489559 0.583377
vt 0.450304 0.599046
vt 0.442873 0.580078
vt 0.564216 0.571547
vt 0.524678 0.593320
vt 0.433359 0.605700
vt 0.425787 0.589838
vt 0.407592 0.591275
vt 0.409687 0.598125
vt 0.391160 0.603360
vt 0.417808 0.614361
vt 0.461958 0.629860
vt 0.478066 0.632933
vt 0.402220 0.613924
vt 0.393967 0.627727
vt 0.388018 0.630603
vt 0.382813 0.617188
vt 0.410950 0.639831
vt 0.435927 0.632526
vt 0.592679 0.614318
vt 0.553029 0.655664
vt 0.404602 0.647265
vt 0.375076 0.641665
vt 0.591587 0.673902
vt 0.425547 0.674446
vt 0.413087 0.665826
vt 0.414063 0.653151
vt 0.366445 0.662123
vt 0.553278 0.712473
vt 0.431225 0.687637
vt 0.465951 0.707757
vt 0.445312 0.703125
vt 0.475846 0.731138
vt 0.449543 0.713787
vt 0.596325 0.726740
vt 0.523904 0.720074
vt 0.501613 0.501409
vt 0.487349 0.512966
vt 0.464628 0.502393
vt 0.615284 0.546942
vt 0.631531 0.547446
vt 0.617487 0.556275
vt 0.510749 0.738011
vt 0.509527 0.750583
vt 0.485295 0.749513
vt 0.375000 0.583230
vt 0.389184 0.590054
vt 0.374364 0.607235
vt 0.359733 0.552414
vt 0.387978 0.548175
vt 0.386170 0.572141
vt 0.632639 0.744350
vt 0.598129 0.774716
vt 0.594732 0.750317
vt 0.475973 0.775310
vt 0.468526 0.798755
vt 0.467171 0.769522
vt 0.457852 0.818271
vt 0.446531 0.837582
vt 0.448548 0.801686
vt 0.481486 0.815897
vt 0.465418 0.863622
vt 0.497185 0.855155
vt 0.745957 0.715146
vt 0.746401 0.734985
vt 0.624482 0.875000
vt 0.609375 0.874588
vt 0.602609 0.855651
vt 0.578473 0.857730
vt 0.588569 0.833529
vt 0.580503 0.805201
vt 0.589810 0.791656
vt 0.665248 0.729304
vt 0.681258 0.701234
vt 0.699248 0.692075
vt 0.714979 0.683657
vt 0.730451 0.691627
vt 0.750272 0.695022
vt 0.506495 0.874391
vt 0.494106 0.873082
vt 0.567962 0.867188
vt 0.532112 0.866042
vt 0.597390 0.875844
vt 0.601249 0.867188
vt 0.440324 0.890589
vt 0.429632 0.897543
vt 0.415828 0.880708
vt 0.579109 0.867632
vt 0.575379 0.888845
vt 0.465402 0.882504
vt 0.459915 0.890625
vt 0.475124 0.890625
vt 0.500598 0.882813
vt 0.483268 0.882328
vt 0.386158 0.898438
vt 0.383813 0.883029
vt 0.450257 0.898927
vt 0.437500 0.898438
vt 0.466123 0.906624
vt 0.532239 0.875714
vt 0.567483 0.902453
vt 0.604636 0.913660
vt 0.587779 0.924192
vt 0.388307 0.911654
vt 0.398438 0.914939
vt 0.390684 0.928458
vt 0.425377 0.906609
vt 0.405048 0.939567
vt 0.399365 0.928760
vt 0.390625 0.938928
vt 0.381830 0.948546
vt 0.477139 0.750318
vt 0.616414 0.882812
vt 0.758039 0.749920
vt 0.770550 0.729731
vt 0.791972 0.721446
vt 0.819971 0.710447
vt 0.844154 0.706592
vt 0.621868 0.990022
vt 0.590626 0.044698
vt 0.542868 0.093003
vt 0.520659 0.078860
vt 0.424789 0.994164
vt 0.460930 0.951571
vt 0.509035 0.935416
vt 0.480466 0.923574
vt 0.375000 0.898147
vt 0.311781 0.687677
vt 0.422111 0.682112
vt 0.412199 0.705997
vt 0.437604 0.706876
vt 0.462044 0.734539
vt 0.423944 0.827233
vt 0.437768 0.865045
vt 0.244612 0.750000
vt 0.245951 0.733370
vt 0.259456 0.710199
vt 0.291230 0.711858
vt 0.365229 0.579357
vt 0.343556 0.611222
vt 0.355065 0.566830
vt 0.230768 0.589332
vt 0.162998 0.620254
vt 0.381789 0.142687
vt 0.411124 0.192037
vt 0.447780 0.351563
vt 0.406310 0.391772
vt 0.398858 0.388257
vt 0.391236 0.396506
vt 0.273438 0.500000
vt 0.278330 0.518277
vt 0.289062 0.515443
vt 0.303781 0.515617
vt 0.319171 0.524469
vt 0.328984 0.568502
vt 0.302369 0.622508
vt 0.260764 0.640520
vt 0.241909 0.632813
vt 0.250000 0.609645
vt 0.241983 0.615834
vt 0.335938 0.633107
vt 0.328125 0.632813
vt 0.349211 0.625000
vt 0.360696 0.625704
vt 0.352884 0.632813
vt 0.305948 0.640625
vt 0.282409 0.648438
vt 0.266700 0.648438
vt 0.336679 0.640625
vt 0.323832 0.650069
vt 0.319575 0.640316
vt 0.346745 0.645940
vt 0.265625 0.656250
vt 0.273438 0.657248
vt 0.265581 0.669410
vt 0.291770 0.656250
vt 0.273623 0.674955
vt 0.281250 0.656250
vt 0.265159 0.695687
vt 0.233012 0.732485
vt 0.234375 0.742188
vt 0.362875 0.564867
vt 0.125000 0.624623
vt 0.149821 0.642273
vt 0.131110 0.664145
vt 0.127371 0.610020
vt 0.140392 0.625000
vt 0.745381 0.511174
vt 0.753608 0.514078
vt 0.742188 0.523438
vt 0.775818 0.511525
vt 0.783992 0.529881
vt 0.760736 0.530720
vt 0.809069 0.511513
vt 0.805312 0.537268
vt 0.834003 0.533918
vt 0.866934 0.511351
vt 0.835228 0.505587
vt 0.653650 0.537871
vt 0.638519 0.539351
vt 0.672097 0.514724
vt 0.733185 0.523438
vt 0.734042 0.536481
vt 0.705818 0.515713
vt 0.744115 0.531250
vt 0.755374 0.539209
vt 0.813266 0.547399
vt 0.727891 0.555880
vt 0.796099 0.542248
vt 0.691448 0.554468
vt 0.678611 0.556726
vt 0.664410 0.538361
vt 0.868832 0.544857
vt 0.849296 0.578725
vt 0.701126 0.564423
vt 0.831934 0.558878
vt 0.836946 0.576923
vt 0.871175 0.574437
vt 0.679953 0.593370
vt 0.851558 0.599444
vt 0.862135 0.604523
vt 0.850716 0.620755
vt 0.699267 0.596636
vt 0.716525 0.624651
vt 0.699245 0.628099
vt 0.850122 0.655227
vt 0.812918 0.624428
vt 0.860271 0.632979
vt 0.872016 0.663830
vt 0.857092 0.671156
vt 0.709643 0.654850
vt 0.846660 0.668965
vt 0.836488 0.679138
vt 0.823128 0.687303
vt 0.867905 0.672217
vt 0.844875 0.686638
vt 0.771613 0.685289
vt 0.801498 0.701733
vt 0.759366 0.695313
vt 0.821464 0.695312
vt 0.870768 0.692679
vt 0.788275 0.703125
vt 0.766102 0.703125
vt 0.658882 0.688179
vt 0.793490 0.710938
vt 0.774314 0.710938
vt 0.636750 0.693371
vt 0.765625 0.712421
vt 0.765406 0.726562
vt 0.757813 0.705379
vt 0.757812 0.736570
vt 0.658752 0.500000
vt 0.680904 0.505956
vt 0.757306 0.500000
vt 0.800748 0.500000
vt 0.873638 0.634013
vt 0.616931 0.085760
vt 0.549138 0.101563
vt 0.522065 0.101563
vt 0.430769 0.116739
vt 0.414062 0.124921
vt 0.576168 0.157729
vt 0.593885 0.145262
vt 0.430269 0.182055
vt 0.619744 0.174576
vt 0.501935 0.218044
vt 0.625000 0.078125
vt 0.471248 0.266367
vt 0.468750 0.320313
vt 0.477723 0.320312
vt 0.471442 0.328125
vt 0.538719 0.327352
vt 0.461694 0.335938
vt 0.560890 0.327972
vt 0.578263 0.335444
vt 0.560636 0.335938
vt 0.454878 0.343750
vt 0.617268 0.324363
vt 0.620942 0.206884
vt 0.621146 0.245263
vt 0.618735 0.293070
vt 0.594590 0.352330
vt 0.586340 0.352947
vt 0.525296 0.489717
vt 0.515353 0.484630
vt 0.483738 0.479555
vt 0.474384 0.535074
vt 0.349572 0.534173
vt 0.375000 0.449567
vt 0.375537 0.414063
vt 0.398464 0.398150
vt 0.416411 0.429677
vt 0.622188 0.368052
vt 0.729799 0.512255
vt 0.625000 0.442969
vt 0.618326 0.452243
vt 0.595081 0.555847
vt 0.409750 0.566241
vt 0.571675 0.562632
vt 0.429688 0.696730
vt 0.622138 0.723911
vt 0.382812 0.609375
vt 0.578260 0.826242
vt 0.557783 0.875000
vt 0.395517 0.906250
vt 0.406250 0.906250
vt 0.417123 0.903062
vt 0.407671 0.914063
vt 0.390625 0.965087
vt 0.409044 0.986975
vt 0.625000 0.785962
vt 0.625000 0.883039
vt 0.290642 0.507813
vt 0.325598 0.519090
vt 0.330776 0.506933
vt 0.346889 0.544004
vt 0.358723 0.616494
vt 0.367188 0.617188
vt 0.160211 0.632812
vt 0.163666 0.640625
vt 0.239934 0.640433
vt 0.251468 0.642800
vt 0.306337 0.648438
vt 0.254960 0.702391
vt 0.242705 0.724983
vt 0.227098 0.749162
vt 0.281250 0.500867
vt 0.289063 0.500000
vt 0.375000 0.617188
vt 0.375000 0.625000
vt 0.234375 0.750000
vt 0.717096 0.554261
vt 0.726563 0.546875
vt 0.718192 0.562527
vt 0.638884 0.578714
vt 0.657800 0.559443
vt 0.661472 0.599555
vt 0.811254 0.596615
vt 0.843750 0.679688
vt 0.812500 0.703125
vt 0.769065 0.500000
vt 0.394744 0.997104
vt 0.380694 0.992700
vt 0.375000 0.890625
vt 0.263494 0.686684
vt 0.175486 0.748812
vt 0.146923 0.742058
vt 0.129004 0.686142
vt 0.750000 0.750000
s 0
f 280/1/1 4/2/1 46/3/1
f 3/4/2 49/5/2 48/6/2
f 3/4/3 46/3/3 49/5/3
f 44/7/4 47/8/4 57/9/4
f 49/5/5 52/10/5 48/6/5
f 45/11/6 53/12/6 52/10/6
f 5/13/7 56/14/7 55/15/7
f 47/8/8 54/16/8 57/9/8
f 56/14/9 65/17/9 55/15/9
f 52/10/10 59/18/10 325/19/10
f 53/12/11 61/20/11 60/21/11
f 57/9/12 62/22/12 61/20/12
f 65/17/13 69/23/13 76/24/13
f 59/18/14 1/25/14 325/19/14
f 66/26/15 7/27/15 69/23/15
f 71/28/16 75/29/16 70/30/16
f 73/31/17 79/32/17 72/33/17
f 75/29/18 84/34/18 74/35/18
f 78/36/19 80/37/19 71/28/19
f 80/37/20 84/34/20 75/29/20
f 80/37/21 85/38/21 84/34/21
f 79/32/22 87/39/22 78/36/22
f 79/32/23 90/40/23 87/39/23
f 90/40/24 92/41/24 89/42/24
f 93/43/25 94/44/25 90/40/25
f 93/43/26 98/45/26 95/46/26
f 95/46/27 96/47/27 94/44/27
f 95/46/28 98/45/28 12/48/28
f 7/27/29 8/49/29 77/50/29
f 12/48/30 100/51/30 97/52/30
f 2/53/31 3/4/31 48/6/31
f 99/54/32 100/51/32 103/55/32
f 100/51/33 102/56/33 107/57/33
f 109/58/34 108/59/34 104/60/34
f 106/61/35 112/62/35 103/55/35
f 111/63/36 117/64/36 110/65/36
f 111/63/37 118/66/37 117/64/37
f 121/67/38 124/68/38 106/61/38
f 126/69/39 136/70/39 129/71/39
f 18/72/40 131/73/40 127/74/40
f 134/75/41 138/76/41 132/77/41
f 129/71/42 141/78/42 140/79/42
f 136/70/43 142/80/43 141/78/43
f 140/79/44 141/78/44 148/81/44
f 142/80/45 145/82/45 146/83/45
f 148/81/46 149/84/46 150/85/46
f 147/86/47 163/87/47 153/88/47
f 150/85/48 21/89/48 22/90/48
f 149/84/49 153/88/49 21/89/49
f 153/88/50 163/91/50 156/92/50
f 15/93/51 143/94/51 14/95/51
f 22/90/52 155/96/52 160/97/52
f 156/92/53 161/98/53 155/96/53
f 161/98/54 162/99/54 155/96/54
f 162/99/55 166/100/55 155/96/55
f 158/101/56 169/102/56 168/103/56
f 168/103/57 173/104/57 172/105/57
f 169/102/58 174/106/58 173/104/58
f 166/100/59 175/107/59 170/108/59
f 175/107/60 182/109/60 170/108/60
f 174/106/61 181/110/61 180/111/61
f 177/112/62 185/113/62 175/107/62
f 180/111/63 184/114/63 183/115/63
f 181/110/64 184/114/64 180/111/64
f 179/116/65 186/117/65 189/118/65
f 183/115/66 187/119/66 186/117/66
f 184/114/67 187/119/67 183/115/67
f 182/109/68 194/120/68 181/110/68
f 185/113/69 198/121/69 182/109/69
f 186/117/70 190/122/70 189/118/70
f 187/119/71 190/122/71 186/117/71
f 190/122/72 193/123/72 189/118/72
f 193/123/73 195/124/73 192/125/73
f 187/119/74 196/126/74 190/122/74
f 181/110/75 197/127/75 184/114/75
f 194/120/76 197/127/76 181/110/76
f 191/128/77 202/129/77 185/113/77
f 195/124/78 199/130/78 25/131/78
f 193/123/79 199/130/79 195/124/79
f 196/126/80 199/130/80 193/123/80
f 191/128/81 206/132/81 202/129/81
f 197/127/82 201/133/82 196/126/82
f 199/130/83 203/134/83 25/131/83
f 200/135/84 203/134/84 199/130/84
f 25/131/85 203/134/85 327/136/85
f 201/133/86 203/134/86 200/135/86
f 202/129/87 206/132/87 209/137/87
f 205/138/88 213/139/88 211/140/88
f 213/139/89 214/141/89 212/142/89
f 209/137/90 218/143/90 216/144/90
f 23/145/91 157/146/91 24/147/91
f 164/148/92 360/149/92 32/150/92
f 215/151/93 36/152/93 37/153/93
f 29/154/94 178/155/94 28/156/94
f 31/157/95 165/158/95 30/159/95
f 34/160/96 221/161/96 35/162/96
f 219/163/97 225/164/97 220/165/97
f 228/166/98 231/167/98 224/168/98
f 226/169/99 228/166/99 225/164/99
f 228/166/100 233/170/100 231/167/100
f 232/171/101 233/170/101 228/166/101
f 410/172/102 418/173/102 42/174/102 241/175/102 234/176/102 236/177/102 230/178/102 223/179/102 222/180/102 221/161/102 416/181/102 405/182/102 393/183/102 391/184/102 394/185/102 401/186/102
f 245/187/103 244/188/103 232/171/103
f 236/177/104 238/189/104 237/190/104
f 241/175/105 247/191/105 240/192/105
f 242/193/106 255/194/106 248/195/106
f 239/196/107 247/191/107 252/197/107
f 243/198/108 256/199/108 242/193/108
f 243/198/109 257/200/109 256/199/109
f 250/201/110 257/200/110 249/202/110
f 248/195/111 258/203/111 254/204/111
f 242/193/112 264/205/112 260/206/112
f 257/200/113 265/207/113 256/199/113
f 257/200/114 250/201/114 251/208/114 252/197/114 266/209/114 265/207/114
f 266/209/115 272/210/115 271/211/115
f 267/212/116 268/213/116 270/214/116
f 263/215/117 275/216/117 273/217/117
f 270/214/118 274/218/118 39/219/118
f 38/220/119 219/163/119 220/165/119
f 265/207/120 266/209/120 271/211/120 272/210/120 252/197/120 247/191/120 253/221/120 43/222/120 421/223/120 417/224/120 414/225/120 415/226/120 5/227/120 51/228/120 58/229/120 50/230/120 54/16/120 47/8/120 44/7/120 4/231/120 279/232/120 276/233/120 278/234/120
f 270/214/121 39/219/121 40/235/121
f 334/236/122 327/136/122 204/237/122 207/238/122 210/239/122 217/240/122 220/165/122 224/168/122 227/241/122 231/167/122 235/242/122 248/195/122 254/243/122 339/244/122 337/245/122 338/246/122
f 293/247/123 298/248/123 291/249/123
f 295/250/124 302/251/124 83/252/124 86/253/124 99/54/124 103/55/124 112/62/124 106/61/124 124/68/124 128/254/124 132/77/124 135/255/124 16/256/124 137/257/124 15/258/124 281/259/124 284/260/124 285/261/124 287/262/124 292/263/124 296/264/124 314/265/124 307/266/124 294/267/124 297/268/124
f 303/269/125 308/270/125 298/248/125
f 304/271/126 305/272/126 309/273/126
f 296/264/127 315/274/127 314/265/127
f 315/274/128 319/275/128 318/276/128
f 317/277/129 326/278/129 316/279/129
f 330/280/130 326/278/130 317/277/130
f 25/131/131 327/136/131 330/280/131
f 321/281/132 322/282/132 328/283/132
f 324/284/133 329/285/133 323/286/133
f 326/278/134 332/287/134 329/285/134
f 327/136/135 334/236/135 330/280/135
f 336/288/136 339/244/136 340/289/136
f 31/157/137 30/159/137 290/290/137
f 1/291/138 310/292/138 325/293/138
f 83/294/139 301/295/139 1/291/139
f 344/296/140 347/297/140 350/298/140
f 345/299/141 352/300/141 351/301/141
f 346/302/142 353/303/142 352/300/142
f 346/302/143 354/304/143 353/303/143
f 11/305/144 354/304/144 105/306/144
f 358/307/145 348/308/145 355/309/145
f 349/310/146 356/311/146 342/312/146
f 347/297/147 351/301/147 357/313/147
f 351/301/148 373/314/148 357/313/148
f 353/303/149 354/304/149 368/315/149
f 373/314/150 367/316/150 356/311/150
f 368/315/151 365/317/151 353/303/151
f 362/318/152 366/319/152 359/320/152
f 354/304/153 10/321/153 375/322/153
f 362/318/154 371/323/154 366/319/154
f 369/324/155 377/325/155 368/315/155
f 10/321/156 9/326/156 375/322/156
f 366/319/157 371/323/157 378/327/157
f 379/328/158 8/329/158 384/330/158
f 376/331/159 382/332/159 381/333/159
f 384/330/160 387/334/160 383/335/160
f 385/336/161 387/334/161 384/330/161
f 385/336/162 6/337/162 390/338/162
f 386/339/163 391/184/163 393/183/163
f 392/340/164 396/341/164 399/342/164
f 398/343/165 415/226/165 400/344/165
f 395/345/166 403/346/166 402/347/166
f 399/342/167 404/348/167 403/346/167
f 400/344/168 404/348/168 396/341/168
f 5/349/169 415/226/169 398/343/169
f 402/347/170 408/350/170 407/351/170
f 405/182/171 416/181/171 389/352/171
f 408/350/172 413/353/172 412/354/172
f 389/352/173 34/160/173 388/355/173
f 413/353/174 417/224/174 412/354/174
f 411/356/175 419/357/175 406/358/175
f 421/223/176 419/357/176 411/356/176
f 419/357/177 421/223/177 420/359/177
f 20/360/178 348/308/178 163/91/178
f 341/361/179 355/309/179 20/360/179
f 19/362/180 347/297/180 344/296/180
f 17/363/181 346/302/181 345/299/181
f 8/329/182 7/364/182 385/336/182
f 46/3/183 3/4/183 280/1/183
f 51/228/184 5/13/184 55/15/184
f 45/11/185 49/5/185 46/3/185
f 57/9/186 45/11/186 46/3/186
f 48/6/187 52/10/187 325/19/187
f 45/11/188 57/9/188 53/12/188
f 51/228/189 55/15/189 58/229/189
f 5/13/190 6/365/190 56/14/190
f 54/16/191 50/230/191 58/229/191
f 56/14/192 66/26/192 65/17/192
f 56/14/193 6/365/193 66/26/193
f 52/10/194 60/21/194 59/18/194
f 53/12/195 57/9/195 61/20/195
f 64/366/196 58/229/196 65/17/196
f 54/16/197 58/229/197 63/367/197
f 58/229/198 64/366/198 63/367/198
f 58/229/199 55/15/199 65/17/199
f 65/17/200 66/26/200 69/23/200
f 61/20/201 62/22/201 71/28/201
f 63/367/202 73/31/202 72/33/202
f 63/367/203 64/366/203 73/31/203
f 68/368/204 59/18/204 60/21/204
f 59/18/205 67/369/205 1/25/205
f 70/30/206 67/369/206 59/18/206
f 62/22/207 78/36/207 71/28/207
f 62/22/208 72/33/208 78/36/208
f 72/33/209 79/32/209 78/36/209
f 71/28/210 80/37/210 75/29/210
f 73/31/211 76/24/211 81/370/211
f 76/24/212 82/371/212 81/370/212
f 83/252/213 84/34/213 85/38/213
f 86/253/214 83/252/214 88/372/214
f 82/371/215 77/50/215 9/373/215
f 85/38/216 80/37/216 87/39/216
f 83/252/217 85/38/217 88/372/217
f 85/38/218 87/39/218 88/372/218
f 73/31/219 91/374/219 79/32/219
f 89/42/220 88/372/220 87/39/220
f 87/39/221 90/40/221 89/42/221
f 79/32/222 93/43/222 90/40/222
f 79/32/223 91/374/223 93/43/223
f 92/41/224 90/40/224 94/44/224
f 94/44/225 93/43/225 95/46/225
f 93/43/226 91/374/226 98/45/226
f 86/253/227 94/44/227 96/47/227
f 96/47/228 95/46/228 97/52/228
f 99/54/229 96/47/229 100/51/229
f 97/52/230 95/46/230 12/48/230
f 44/7/231 57/9/231 46/3/231 4/2/231
f 5/13/232 398/375/232 6/365/232
f 100/51/233 101/376/233 102/56/233
f 102/56/234 101/376/234 104/60/234
f 106/61/235 100/51/235 107/57/235
f 103/55/236 100/51/236 106/61/236
f 104/60/237 108/59/237 102/56/237
f 108/59/238 109/58/238 110/65/238
f 110/65/239 109/58/239 111/63/239
f 102/56/240 113/377/240 107/57/240
f 114/378/241 108/59/241 110/65/241
f 110/65/242 117/64/242 114/378/242
f 116/379/243 113/377/243 114/378/243
f 113/377/244 116/379/244 107/57/244
f 118/66/245 111/63/245 115/380/245
f 114/378/246 117/64/246 116/379/246
f 122/381/247 107/57/247 116/379/247
f 118/66/248 115/380/248 129/71/248
f 119/382/249 120/383/249 123/384/249
f 125/385/250 121/67/250 122/381/250
f 17/386/251 127/74/251 120/383/251 119/382/251 115/380/251 111/63/251 109/58/251 104/60/251 101/376/251 12/48/251 98/45/251 91/374/251 73/31/251 81/370/251 82/371/251 9/373/251 10/387/251 11/388/251 105/389/251
f 121/67/252 125/385/252 124/68/252
f 129/71/253 123/384/253 126/69/253
f 115/380/254 123/384/254 129/71/254
f 120/383/255 127/74/255 126/69/255
f 123/384/256 120/383/256 126/69/256
f 17/386/257 18/72/257 127/74/257
f 128/254/258 124/68/258 125/385/258
f 127/74/259 131/73/259 133/390/259
f 126/69/260 127/74/260 130/391/260
f 127/74/261 133/390/261 130/391/261
f 128/254/262 134/75/262 132/77/262
f 129/71/263 140/79/263 148/81/263 150/85/263 152/392/263 154/393/263 151/394/263 24/147/263 157/146/263 159/395/263 158/101/263 168/103/263 165/158/263 288/396/263 283/397/263 13/398/263 143/94/263 139/399/263 144/400/263 138/76/263 134/75/263 128/254/263 125/385/263 122/381/263 116/379/263 117/64/263 118/66/263
f 131/73/264 18/72/264 19/401/264
f 129/71/265 136/70/265 141/78/265
f 132/77/266 138/76/266 144/400/266
f 139/399/267 137/257/267 16/256/267
f 143/94/268 15/93/268 137/257/268
f 131/73/269 19/362/269 344/296/269 343/402/269 342/312/269 341/403/269 20/404/269 145/82/269 142/80/269 136/70/269 130/391/269 133/390/269
f 146/83/270 141/78/270 142/80/270
f 148/81/271 141/78/271 146/83/271
f 146/83/272 145/82/272 147/86/272
f 148/81/273 146/83/273 149/84/273
f 146/83/274 147/86/274 153/88/274
f 147/86/275 20/404/275 163/87/275
f 149/84/276 146/83/276 153/88/276
f 150/85/277 149/84/277 21/89/277
f 151/394/278 154/393/278 24/147/278
f 100/51/279 12/48/279 101/376/279
f 152/392/280 150/85/280 22/90/280
f 154/393/281 23/145/281 24/147/281
f 13/398/282 14/95/282 143/94/282
f 157/146/283 23/145/283 160/97/283
f 23/145/284 22/90/284 160/97/284
f 159/395/285 157/146/285 166/100/285
f 157/146/286 160/97/286 166/100/286
f 163/91/287 164/148/287 167/405/287
f 156/92/288 163/91/288 161/98/288
f 171/406/289 165/158/289 168/103/289
f 158/101/290 159/395/290 169/102/290
f 167/405/291 164/148/291 32/150/291
f 159/395/292 166/100/292 170/108/292
f 160/97/293 155/96/293 166/100/293
f 163/91/294 167/405/294 161/98/294
f 176/407/295 161/98/295 167/405/295
f 169/102/296 159/395/296 170/108/296
f 161/98/297 176/407/297 162/99/297
f 165/158/298 171/406/298 30/159/298
f 171/406/299 168/103/299 172/105/299
f 168/103/300 169/102/300 173/104/300
f 166/100/301 162/99/301 175/107/301
f 180/111/302 173/104/302 174/106/302
f 162/99/303 177/112/303 175/107/303
f 162/99/304 176/407/304 177/112/304
f 172/105/305 173/104/305 180/111/305
f 170/108/306 182/109/306 174/106/306
f 183/115/307 172/105/307 180/111/307
f 174/106/308 182/109/308 181/110/308
f 189/118/309 178/155/309 179/116/309
f 177/112/310 191/128/310 185/113/310
f 182/109/311 198/121/311 194/120/311
f 199/130/312 196/126/312 200/135/312
f 190/122/313 196/126/313 193/123/313
f 184/114/314 197/127/314 187/119/314
f 187/119/315 197/127/315 196/126/315
f 196/126/316 201/133/316 200/135/316
f 204/237/317 201/133/317 205/138/317
f 327/136/318 203/134/318 204/237/318
f 203/134/319 201/133/319 204/237/319
f 204/237/320 205/138/320 208/408/320
f 210/239/321 208/408/321 205/138/321 211/140/321
f 210/239/322 211/140/322 212/142/322
f 215/151/323 214/141/323 213/139/323 205/138/323 201/133/323 197/127/323 194/120/323 198/121/323 185/113/323 202/129/323 209/137/323 216/144/323
f 207/238/324 208/408/324 210/239/324
f 212/142/325 211/140/325 213/139/325
f 206/132/326 218/143/326 209/137/326
f 210/239/327 212/142/327 217/240/327
f 214/141/328 215/151/328 37/153/328
f 218/143/329 33/409/329 35/162/329
f 22/90/330 21/89/330 155/96/330
f 163/91/331 360/149/331 164/148/331
f 35/162/332 33/409/332 34/160/332
f 188/410/333 28/156/333 189/118/333
f 28/156/334 178/155/334 189/118/334
f 29/154/335 30/159/335 178/155/335
f 220/165/336 225/164/336 224/168/336
f 223/179/337 229/411/337 237/190/337 245/187/337 232/171/337 228/166/337 226/169/337 219/163/337 36/152/337 215/151/337 216/144/337 218/143/337 35/162/337 221/161/337 222/180/337
f 229/411/338 223/179/338 230/178/338
f 225/164/339 219/163/339 226/169/339
f 225/164/340 228/166/340 224/168/340
f 224/168/341 231/167/341 227/241/341
f 236/177/342 229/411/342 230/178/342
f 229/411/343 236/177/343 237/190/343
f 232/171/344 249/202/344 233/170/344
f 232/171/345 244/188/345 249/202/345
f 236/177/346 239/196/346 238/189/346
f 240/192/347 234/176/347 241/175/347
f 242/193/348 235/242/348 243/198/348
f 235/242/349 242/193/349 248/195/349
f 251/208/350 237/190/350 246/412/350
f 235/242/351 233/170/351 243/198/351
f 233/170/352 249/202/352 243/198/352
f 237/190/353 251/208/353 245/187/353
f 237/190/354 238/189/354 246/412/354
f 247/191/355 239/196/355 240/192/355
f 251/208/356 246/412/356 252/197/356
f 244/188/357 250/201/357 249/202/357
f 244/188/358 245/187/358 250/201/358
f 245/187/359 251/208/359 250/201/359
f 252/197/360 246/412/360 239/196/360
f 253/221/361 247/191/361 241/175/361
f 257/200/362 243/198/362 249/202/362
f 241/175/363 42/174/363 253/221/363
f 260/206/364 255/194/364 242/193/364
f 264/205/365 242/193/365 256/199/365
f 267/212/366 258/203/366 261/413/366
f 256/199/367 265/207/367 264/205/367
f 258/203/368 262/414/368 261/413/368
f 263/215/369 259/415/369 255/194/369
f 266/209/370 252/197/370 272/210/370
f 267/212/371 261/413/371 268/213/371
f 269/416/372 262/414/372 259/415/372
f 273/217/373 269/416/373 263/215/373
f 269/416/374 273/217/374 268/213/374
f 273/217/375 270/214/375 268/213/375
f 278/234/376 276/233/376 279/232/376
f 274/218/377 275/216/377 277/417/377
f 278/234/378 279/232/378 4/231/378
f 275/216/379 280/418/379 277/417/379
f 219/163/380 38/220/380 37/153/380
f 264/205/381 265/207/381 278/234/381 4/231/381 280/418/381 275/216/381 263/215/381
f 217/240/382 38/220/382 220/165/382
f 37/153/383 36/152/383 219/163/383
f 34/160/384 416/419/384 221/161/384
f 42/174/385 43/420/385 253/221/385
f 40/235/386 258/203/386 267/212/386
f 40/235/387 267/212/387 270/214/387
f 284/260/388 282/421/388 285/261/388
f 285/261/389 286/422/389 287/262/389
f 283/423/390 288/396/390 286/422/390
f 287/262/391 286/422/391 289/424/391
f 286/422/392 288/396/392 289/424/392
f 287/262/393 289/424/393 292/263/393
f 289/424/394 291/249/394 292/263/394
f 295/250/395 297/268/395 302/251/395
f 291/249/396 298/248/396 292/263/396
f 293/247/397 299/425/397 298/248/397
f 293/247/398 28/156/398 299/425/398
f 298/248/399 304/271/399 303/269/399
f 292/263/400 298/248/400 296/264/400
f 28/156/401 300/426/401 299/425/401
f 83/294/402 302/251/402 301/295/402
f 299/425/403 305/272/403 304/271/403
f 307/266/404 297/268/404 294/267/404
f 298/248/405 308/270/405 316/279/405
f 304/271/406 309/273/406 303/269/406
f 306/427/407 311/428/407 310/292/407
f 312/429/408 307/266/408 313/430/408
f 308/270/409 317/277/409 316/279/409
f 308/270/410 303/269/410 317/277/410
f 314/265/411 318/276/411 313/430/411
f 318/276/412 314/265/412 315/274/412
f 320/431/413 315/274/413 316/279/413
f 315/274/414 320/431/414 319/275/414
f 316/279/415 326/278/415 320/431/415
f 321/281/416 313/430/416 318/276/416
f 321/281/417 318/276/417 322/282/417
f 328/283/418 322/282/418 329/285/418
f 323/286/419 329/285/419 322/282/419
f 324/284/420 326/278/420 329/285/420
f 326/278/421 330/280/421 332/287/421
f 332/287/422 334/236/422 337/245/422
f 333/432/423 337/245/423 335/433/423
f 339/244/424 335/433/424 337/245/424
f 335/433/425 339/244/425 336/288/425
f 336/288/426 340/289/426 40/434/426
f 14/435/427 13/436/427 282/421/427
f 282/421/428 13/436/428 283/423/428
f 288/396/429 165/158/429 31/157/429
f 293/247/430 29/154/430 28/156/430
f 300/426/431 28/156/431 27/437/431
f 305/272/432 26/438/432 25/131/432
f 41/439/433 40/434/433 340/289/433
f 1/291/434 301/295/434 310/292/434
f 341/361/435 342/312/435 355/309/435
f 342/312/436 343/402/436 349/310/436
f 355/309/437 342/312/437 362/318/437
f 347/297/438 345/299/438 351/301/438
f 345/299/439 346/302/439 352/300/439
f 346/302/440 105/306/440 354/304/440
f 355/309/441 359/320/441 358/307/441
f 342/312/442 356/311/442 362/318/442
f 356/311/443 357/313/443 373/314/443
f 350/298/444 347/297/444 357/313/444
f 356/311/445 363/440/445 362/318/445
f 11/305/446 10/321/446 354/304/446
f 364/441/447 356/311/447 367/316/447
f 355/309/448 362/318/448 359/320/448
f 356/311/449 364/441/449 363/440/449
f 364/441/450 367/316/450 363/440/450
f 369/324/451 354/304/451 375/322/451
f 362/318/452 363/440/452 371/323/452
f 363/440/453 372/442/453 371/323/453
f 370/443/454 361/444/454 380/445/454
f 380/445/455 361/444/455 378/327/455
f 378/327/456 361/444/456 366/319/456
f 368/315/457 377/325/457 374/446/457
f 378/327/458 371/323/458 376/331/458
f 377/325/459 375/322/459 379/328/459
f 374/446/460 377/325/460 379/328/460
f 380/445/461 378/327/461 381/333/461 386/339/461 393/183/461 405/182/461 389/352/461 388/355/461 33/409/461 218/143/461 206/132/461 191/128/461 177/112/461 176/407/461 167/405/461 32/150/461 370/443/461
f 374/446/462 379/328/462 384/330/462
f 378/327/463 376/331/463 381/333/463
f 374/446/464 384/330/464 383/335/464
f 8/329/465 385/336/465 384/330/465
f 381/333/466 382/332/466 386/339/466
f 385/336/467 7/364/467 6/337/467
f 387/334/468 392/340/468 399/342/468
f 398/343/469 390/338/469 6/337/469
f 392/340/470 397/447/470 396/341/470
f 400/344/471 390/338/471 398/343/471
f 396/341/472 397/447/472 400/344/472
f 404/348/473 399/342/473 396/341/473
f 395/345/474 399/342/474 403/346/474
f 400/344/475 414/225/475 404/348/475
f 400/344/476 415/226/476 414/225/476
f 406/358/477 402/347/477 407/351/477
f 409/448/478 403/346/478 404/348/478
f 404/348/479 414/225/479 409/448/479
f 406/358/480 407/351/480 411/356/480
f 411/356/481 407/351/481 412/354/481
f 413/353/482 408/350/482 403/346/482
f 407/351/483 408/350/483 412/354/483
f 403/346/484 417/224/484 413/353/484
f 388/355/485 34/160/485 33/409/485
f 389/352/486 416/181/486 34/160/486
f 412/354/487 421/223/487 411/356/487
f 412/354/488 417/224/488 421/223/488
f 419/357/489 420/359/489 418/173/489
f 420/359/490 421/223/490 43/222/490
f 20/360/491 355/309/491 348/308/491
f 18/449/492 17/363/492 345/299/492
f 17/363/493 105/306/493 346/302/493
f 163/91/494 348/308/494 360/149/494
f 54/16/495 63/367/495 62/22/495 57/9/495
f 49/5/496 45/11/496 52/10/496
f 52/10/497 53/12/497 60/21/497
f 71/28/498 68/368/498 60/21/498 61/20/498
f 64/366/499 65/17/499 76/24/499 73/31/499
f 62/22/500 63/367/500 72/33/500
f 68/368/501 71/28/501 70/30/501 59/18/501
f 70/30/502 75/29/502 74/35/502 67/369/502
f 74/35/503 1/25/503 67/369/503
f 69/23/504 77/50/504 82/371/504 76/24/504
f 74/35/505 84/34/505 83/252/505 1/25/505
f 77/50/506 69/23/506 7/27/506
f 88/372/507 89/42/507 92/41/507 86/253/507
f 80/37/508 78/36/508 87/39/508
f 94/44/509 86/253/509 92/41/509
f 99/54/510 86/253/510 96/47/510
f 97/52/511 100/51/511 96/47/511
f 108/59/512 114/378/512 113/377/512 102/56/512
f 7/27/513 66/26/513 6/365/513
f 9/373/514 77/50/514 8/49/514
f 122/381/515 121/67/515 106/61/515 107/57/515
f 123/384/516 115/380/516 119/382/516
f 136/70/517 126/69/517 130/391/517
f 144/400/518 139/399/518 135/255/518 132/77/518
f 139/399/519 16/256/519 135/255/519
f 143/94/520 137/257/520 139/399/520
f 147/86/521 145/82/521 20/404/521
f 152/392/522 22/90/522 23/145/522 154/393/522
f 156/92/523 155/96/523 21/89/523 153/88/523
f 30/159/524 171/406/524 179/116/524 178/155/524
f 174/106/525 169/102/525 170/108/525
f 179/116/526 172/105/526 183/115/526 186/117/526
f 172/105/527 179/116/527 171/406/527
f 182/109/528 175/107/528 185/113/528
f 189/118/529 193/123/529 192/125/529 188/410/529
f 217/240/530 214/141/530 37/153/530 38/220/530
f 207/238/531 204/237/531 208/408/531
f 217/240/532 212/142/532 214/141/532
f 192/125/533 195/124/533 26/438/533 27/437/533
f 25/131/534 26/438/534 195/124/534
f 188/410/535 192/125/535 27/437/535 28/156/535
f 233/170/536 235/242/536 231/167/536
f 236/177/537 234/176/537 240/192/537 239/196/537
f 239/196/538 246/412/538 238/189/538
f 259/415/539 258/203/539 248/195/539 255/194/539
f 260/206/540 264/205/540 263/215/540 255/194/540
f 262/414/541 258/203/541 259/415/541
f 261/413/542 262/414/542 269/416/542 268/213/542
f 273/217/543 275/216/543 274/218/543 270/214/543
f 269/416/544 259/415/544 263/215/544
f 277/417/545 3/450/545 2/451/545 39/219/545
f 39/219/546 274/218/546 277/417/546
f 3/450/547 277/417/547 280/418/547
f 258/203/548 40/235/548 41/452/548 254/204/548
f 14/435/549 282/421/549 284/260/549 281/259/549
f 286/422/550 285/261/550 282/421/550 283/423/550
f 31/157/551 289/424/551 288/396/551
f 31/157/552 290/290/552 291/249/552 289/424/552
f 301/295/553 302/251/553 306/427/553 310/292/553
f 291/249/554 290/290/554 293/247/554
f 298/248/555 299/425/555 304/271/555
f 305/272/556 299/425/556 300/426/556
f 316/279/557 315/274/557 296/264/557 298/248/557
f 314/265/558 313/430/558 307/266/558
f 309/273/559 330/280/559 317/277/559 303/269/559
f 25/131/560 330/280/560 309/273/560 305/272/560
f 319/275/561 323/286/561 322/282/561 318/276/561
f 321/281/562 328/283/562 313/430/562
f 320/431/563 326/278/563 324/284/563 319/275/563
f 324/284/564 323/286/564 319/275/564
f 329/285/565 332/287/565 331/453/565 328/283/565
f 332/287/566 330/280/566 334/236/566
f 332/287/567 337/245/567 333/432/567 331/453/567
f 30/159/568 29/154/568 293/247/568 290/290/568
f 337/245/569 334/236/569 338/246/569
f 331/453/570 333/432/570 335/433/570 336/288/570 40/434/570 39/454/570 2/455/570 48/456/570 325/293/570 310/292/570 311/428/570 306/427/570 302/251/570 297/268/570 307/266/570 312/429/570 313/430/570 328/283/570
f 14/435/571 281/259/571 15/258/571
f 300/426/572 27/437/572 26/438/572 305/272/572
f 339/244/573 254/243/573 41/439/573 340/289/573
f 350/298/574 349/310/574 343/402/574 344/296/574
f 357/313/575 356/311/575 349/310/575 350/298/575
f 352/300/576 365/317/576 373/314/576 351/301/576
f 358/307/577 361/444/577 360/149/577 348/308/577
f 353/303/578 365/317/578 352/300/578
f 359/320/579 366/319/579 361/444/579 358/307/579
f 368/315/580 354/304/580 369/324/580
f 361/444/581 370/443/581 360/149/581
f 372/442/582 363/440/582 367/316/582
f 375/322/583 377/325/583 369/324/583
f 8/329/584 379/328/584 375/322/584
f 8/329/585 375/322/585 9/326/585
f 390/338/586 392/340/586 387/334/586 385/336/586
f 392/340/587 390/338/587 400/344/587 397/447/587
f 402/347/588 401/186/588 394/185/588 391/184/588 386/339/588 382/332/588 376/331/588 371/323/588 372/442/588 367/316/588 373/314/588 365/317/588 368/315/588 374/446/588 383/335/588 387/334/588 399/342/588 395/345/588
f 401/186/589 402/347/589 406/358/589
f 408/350/590 402/347/590 403/346/590
f 409/448/591 414/225/591 417/224/591 403/346/591
f 410/172/592 401/186/592 406/358/592
f 419/357/593 418/173/593 410/172/593 406/358/593
f 18/449/594 345/299/594 347/297/594 19/362/594
f 420/359/595 43/222/595 42/457/595 418/173/595
f 370/443/596 32/150/596 360/149/596
